<?xml version="1.0" encoding="UTF-8" standalone="no"?>
<!-- Created with Inkscape (http://www.inkscape.org/) -->

<svg
   width="210mm"
   height="297mm"
   viewBox="0 0 210 297"
   version="1.1"
   id="svg5"
   inkscape:version="1.1.2 (b8e25be833, 2022-02-05)"
   sodipodi:docname="ChowChowCamaraSiluet.svg"
   xmlns:inkscape="http://www.inkscape.org/namespaces/inkscape"
   xmlns:sodipodi="http://sodipodi.sourceforge.net/DTD/sodipodi-0.dtd"
   xmlns="http://www.w3.org/2000/svg"
   xmlns:svg="http://www.w3.org/2000/svg">
  <sodipodi:namedview
     id="namedview7"
     pagecolor="#ffffff"
     bordercolor="#666666"
     borderopacity="1.0"
     inkscape:pageshadow="2"
     inkscape:pageopacity="0.0"
     inkscape:pagecheckerboard="0"
     inkscape:document-units="mm"
     showgrid="false"
     inkscape:zoom="1.0998546"
     inkscape:cx="-259.57977"
     inkscape:cy="400.05288"
     inkscape:window-width="3440"
     inkscape:window-height="1369"
     inkscape:window-x="-8"
     inkscape:window-y="-8"
     inkscape:window-maximized="1"
     inkscape:current-layer="layer1" />
  <defs
     id="defs2" />
  <g
     inkscape:label="Capa 1"
     inkscape:groupmode="layer"
     id="layer1">
    <g
       id="g12923">
      <path
         style="fill:none;stroke:#000000;stroke-width:4.265;stroke-linecap:butt;stroke-linejoin:miter;stroke-miterlimit:4;stroke-dasharray:none;stroke-opacity:1"
         d="M 75.761327,199.70103 C 56.199471,194.08763 44.761084,189.27907 31.874729,164.14948 20.299123,135.81293 28.105713,107.10117 34.859043,93.386596 42.77099,77.269556 58.268447,47.562985 80.288658,41.505155 c 10.212881,2.900862 21.418042,5.827602 32.300722,6.606605 10.45141,-1.039704 11.12554,-1.378009 27.2165,-5.443298 18.458,3.685961 27.74306,15.089085 35.4003,30.475867 11.45371,23.814384 16.24422,33.855541 18.53416,63.514761 1.26503,40.24907 -23.15731,55.03639 -43.70942,62.87184"
         id="path869"
         sodipodi:nodetypes="ccccccccc" />
      <path
         style="fill:none;stroke:#000000;stroke-width:4.265;stroke-linecap:butt;stroke-linejoin:miter;stroke-miterlimit:4;stroke-dasharray:none;stroke-opacity:1"
         d="m 49.120291,67.372914 c -4.14262,-13.465636 -1.905264,-26.98134 5.142596,-40.836831 18.95454,-0.978955 23.004452,9.972639 27.302278,15.986453"
         id="path4191"
         sodipodi:nodetypes="ccc" />
      <path
         style="fill:none;stroke:#000000;stroke-width:4.265;stroke-linecap:butt;stroke-linejoin:miter;stroke-miterlimit:4;stroke-dasharray:none;stroke-opacity:1"
         d="m 137.62017,43.233905 c 8.67526,-10.828324 19.21488,-17.560306 27.89014,-16.187514 12.88521,13.040877 4.55231,26.982022 6.29381,40.059279"
         id="path4473"
         sodipodi:nodetypes="ccc" />
      <path
         style="fill:none;stroke:#000000;stroke-width:4.265;stroke-linecap:butt;stroke-linejoin:miter;stroke-miterlimit:4;stroke-dasharray:none;stroke-opacity:1"
         d="m 79.097938,119.07216 c -6.705482,7.25773 -7.794783,17.06701 -7.484536,24.32474 1.531485,8.2879 6.74721,13.54172 15.989689,15.47939 12.259675,-1.93397 18.790129,-6.58178 22.453609,-12.58763 2.68595,-6.36462 1.69771,-8.1073 1.36082,-13.60825"
         id="path4641"
         sodipodi:nodetypes="ccccc" />
      <path
         style="fill:none;stroke:#000000;stroke-width:4.265;stroke-linecap:butt;stroke-linejoin:miter;stroke-miterlimit:4;stroke-dasharray:none;stroke-opacity:1"
         d="m 145.60824,119.75258 c 3.24364,7.60925 5.66329,13.83399 6.16499,23.01374 -0.47115,11.18225 -10.77115,15.01961 -17.35051,15.47938 -13.17393,-0.38719 -17.9863,-6.89883 -24.36602,-11.95704"
         id="path5037"
         sodipodi:nodetypes="cccc" />
      <path
         style="fill:none;stroke:#000000;stroke-width:4.265;stroke-linecap:butt;stroke-linejoin:miter;stroke-miterlimit:4;stroke-dasharray:none;stroke-opacity:1"
         d="m 111.41752,132.68041 c -3.60275,-0.73144 -10.56285,-4.49663 -12.247419,-8.16495 -0.527501,-4.14724 1.003679,-7.52667 6.082439,-8.67526 0.44009,-0.11104 6.41583,-0.0362 11.09797,0.17011 4.56915,1.23224 6.17551,3.71119 6.12372,8.84536 -2.90162,5.26374 -6.96711,6.93325 -11.05671,7.82474 z"
         id="path5205"
         sodipodi:nodetypes="cccccc" />
      <path
         style="fill:none;stroke:#000000;stroke-width:4.265;stroke-linecap:butt;stroke-linejoin:miter;stroke-miterlimit:4;stroke-dasharray:none;stroke-opacity:1"
         d="m 87.603091,158.87629 c 9.20334,14.65874 12.078233,19.98523 24.579899,20.49743 12.58911,-0.29357 16.20223,-10.66537 19.64691,-19.98712"
         id="path6779"
         sodipodi:nodetypes="ccc" />
      <ellipse
         style="fill:#000000;fill-opacity:1;stroke:#000000;stroke-width:4.265;stroke-linecap:round;stroke-miterlimit:4;stroke-dasharray:none;stroke-dashoffset:12.7569;stroke-opacity:1;paint-order:markers fill stroke"
         id="path9786"
         cx="89.176544"
         cy="99.425255"
         rx="4.7314129"
         ry="7.1443295" />
      <ellipse
         style="fill:#000000;fill-opacity:1;stroke:#000000;stroke-width:4.265;stroke-linecap:round;stroke-miterlimit:4;stroke-dasharray:none;stroke-dashoffset:12.7569;stroke-opacity:1;paint-order:markers fill stroke"
         id="path9786-8"
         cx="133.87282"
         cy="99.71299"
         rx="4.7314129"
         ry="7.1443295" />
    </g>
  </g>
</svg>
