<svg width="96" height="86" viewBox="0 0 96 86" fill="none" xmlns="http://www.w3.org/2000/svg">
<path d="M29.0326 50.8115L3.42163 43.5584L20.649 36.5254L20.9391 37.2257L5.72262 43.4283L29.2327 50.0912L29.0326 50.8115Z" fill="#FFCCD6"/>
<path d="M15.7967 61.576C15.5066 61.576 15.2064 61.566 14.9163 61.536C12.6954 61.3459 10.0442 59.7752 7.81326 57.3342C5.3322 54.613 3.7015 51.1715 3.21129 47.64C2.96118 45.8092 3.19128 43.6183 3.91159 41.1172C4.50184 39.0564 5.43224 36.7654 6.59274 34.4944C7.59317 32.5536 8.75366 30.6628 9.85413 29.1721C10.3744 28.4718 10.8546 27.8916 11.2948 27.4414C11.795 26.9312 12.2051 26.631 12.5653 26.511C13.4257 26.2209 16.0468 25.3505 18.1477 27.0712C18.788 27.6015 19.1481 28.1017 19.3482 28.7519C19.4282 29.0221 19.4783 29.3122 19.5283 29.6323L19.5483 29.7924C19.5883 30.0425 19.6283 30.3026 19.6883 30.6027C19.9585 31.9733 20.6488 34.3143 23.58 38.7062C24.0602 39.4265 24.6505 40.1068 25.3808 40.9272L25.4708 41.0272C26.1311 41.7675 26.8114 42.5278 27.4116 43.3582C28.4121 44.7488 29.6726 46.9497 29.0423 50.0411C28.4821 52.8122 26.7013 55.7835 24.2603 58.0045C21.7092 60.3255 18.7279 61.566 15.7767 61.566L15.7967 61.576ZM15.1464 27.0412C14.326 27.0412 13.5257 27.2513 12.8854 27.4714C12.7954 27.5014 12.5253 27.6315 12.0151 28.1517C11.6149 28.5519 11.1547 29.1121 10.6645 29.7724C9.59402 31.213 8.47354 33.0538 7.49312 34.9546C6.35264 37.1655 5.45225 39.3965 4.88201 41.3974C4.21172 43.7684 3.98162 45.8192 4.21172 47.51C4.66191 50.8414 6.21258 54.0928 8.55358 56.6639C10.5844 58.8948 13.0555 60.3755 14.9963 60.5455C17.9576 60.7957 21.0089 59.6352 23.6 57.2741C25.881 55.1933 27.5517 52.4221 28.0719 49.851C28.4921 47.7601 28.0419 45.9393 26.6113 43.9484C26.0411 43.1581 25.3808 42.4178 24.7405 41.6975L24.6505 41.5974C23.9202 40.7771 23.2799 40.0368 22.7597 39.2664C19.7284 34.7245 18.998 32.2534 18.7179 30.8028C18.6579 30.4827 18.6179 30.2026 18.5779 29.9525L18.5579 29.7924C18.5178 29.5223 18.4778 29.2822 18.4078 29.0521C18.2877 28.6619 18.0977 28.3118 17.5274 27.8516C16.7871 27.2413 15.9567 27.0412 15.1464 27.0412Z" fill="#FF5C6C"/>
<path d="M59.7256 85.4967C58.0849 85.4967 56.3542 85.2866 54.5834 84.7564C53.0828 84.3062 51.9723 83.856 51.172 83.5059L50.3816 83.1557C49.8114 82.9056 49.3012 82.6755 48.7509 82.4754C47.2603 81.9252 45.5495 81.585 42.0781 81.7251C39.2268 81.8451 36.5757 82.5855 34.0246 83.2958C33.1142 83.5459 32.2038 83.806 31.2934 84.0261C27.932 84.8564 24.2504 85.3867 20.1187 83.6159C17.6176 82.5454 15.8668 80.1844 15.2966 77.1331C14.7464 74.1819 15.4667 71.0305 17.2274 68.7195C19.0082 66.3785 21.4993 64.9279 23.9003 63.5273L24.0904 63.4173C26.3713 62.0867 28.7324 60.7161 30.183 58.5152C31.4135 56.6644 32.1538 55.0637 32.8641 53.513L33.3043 52.5626C34.1347 50.8119 35.1051 48.9211 37.0759 46.7601C38.9767 44.6692 42.3382 43.3987 46.0698 43.3387C49.9314 43.3087 53.623 44.5492 56.1441 46.8001C56.7944 47.3804 57.4046 48.3708 58.1149 50.0115C58.5351 50.9819 58.9453 52.0724 59.3855 53.2329L59.9157 54.6335C60.4959 56.1441 61.2063 57.8949 62.0366 59.4456C62.907 61.0863 63.7874 62.2768 64.7278 63.0871C66.4485 64.5778 68.0592 65.238 69.6299 65.8783C69.98 66.0184 70.3302 66.1584 70.6603 66.3085C71.4906 66.6687 72.4411 67.1389 73.3114 67.8992C74.1818 68.6695 74.8621 69.6599 75.3923 70.9305C76.4028 73.3515 76.2627 76.0227 74.9921 78.4637C73.9717 80.4345 72.281 82.0953 70.5903 82.8056L70.2201 82.9656C68.0792 83.866 64.2375 85.4867 59.7056 85.4867L59.7256 85.4967ZM43.5787 80.6847C46.2298 80.6847 47.7405 81.0248 49.1011 81.525C49.6613 81.7351 50.2015 81.9752 50.7918 82.2353L51.5721 82.5755C52.3425 82.9056 53.4229 83.3458 54.8735 83.786C61.2163 85.6868 67.0488 83.2257 69.86 82.0452L70.2301 81.8852C71.6907 81.2749 73.2214 79.7543 74.1318 78.0035C74.9321 76.4728 75.6424 74.0718 74.4919 71.3206C74.0217 70.1902 73.4315 69.3198 72.6712 68.6495C71.9108 67.9792 71.0405 67.549 70.2901 67.2289C69.96 67.0888 69.6198 66.9488 69.2797 66.8087C67.719 66.1684 65.9483 65.4481 64.1075 63.8575C63.0771 62.9671 62.1166 61.6765 61.1862 59.9358C60.3359 58.3351 59.6156 56.5443 59.0153 55.0137L58.4751 53.6031C58.0349 52.4526 57.6247 51.3721 57.2145 50.4217C56.8144 49.4913 56.1941 48.1807 55.4938 47.5605C53.1628 45.4796 49.7513 44.3091 46.0998 44.3591C42.6383 44.4091 39.547 45.5596 37.8262 47.4504C35.9454 49.5213 35.015 51.3321 34.2247 53.0128L33.7845 53.9532C33.0542 55.5339 32.2939 57.1746 31.0233 59.0854C29.4427 61.4764 26.8716 62.9771 24.6006 64.2976L24.4105 64.4077C22.0895 65.7583 19.6885 67.1589 18.0278 69.3398C16.4371 71.4307 15.7868 74.2819 16.287 76.9631C16.7872 79.6842 18.3279 81.7751 20.5188 82.7055C24.3705 84.3562 27.862 83.846 31.0533 83.0657C31.9537 82.8456 32.8541 82.5955 33.7545 82.3354C36.3656 81.605 39.0668 80.8547 42.038 80.7247C42.5883 80.7047 43.0985 80.6947 43.5687 80.6947L43.5787 80.6847Z" fill="#FF5C6C"/>
<path d="M44.4993 81.1046L30.2932 58.9952L30.9235 58.595L44.4693 79.674L59.1456 54.6333L59.7958 55.0135L44.4993 81.1046Z" fill="#FFCCD6"/>
<path d="M90.1286 61.4262L66.3984 50.2114L66.7186 49.5311L89.3283 60.2156L88.1578 33.6643L88.9081 33.6243L90.1286 61.4262Z" fill="#FFCCD6"/>
<path d="M79.2639 66.7287C78.1434 66.7287 77.0629 66.5687 76.0425 66.2385C69.6498 63.6074 65.9982 60.256 65.1578 56.2442C64.4175 52.7127 66.0782 49.4513 67.879 47.5705C69.7498 45.5197 72.3309 43.0986 75.1321 40.7576C77.9733 38.3966 80.7845 36.3357 83.0655 34.9651C84.316 34.2148 85.3965 33.6646 86.2769 33.3444C86.7771 33.1644 87.2073 33.0543 87.5874 33.0143C88.0576 32.9643 88.4478 33.0143 88.7679 33.1844C95.1307 36.3557 97.7218 45.3996 94.8105 54.2334C93.3999 58.4952 90.5787 62.1068 86.8571 64.4077C84.3861 65.9284 81.7549 66.7187 79.2839 66.7187L79.2639 66.7287ZM87.8876 34.0147C87.8175 34.0147 87.7475 34.0147 87.6775 34.0247C87.3874 34.0547 87.0272 34.1448 86.607 34.2949C85.7867 34.585 84.7662 35.1052 83.5757 35.8255C81.3448 37.1761 78.5736 39.197 75.7724 41.5279C73.0012 43.8389 70.4601 46.22 68.6093 48.2508C67.0487 49.8715 65.478 52.8728 66.1383 56.0342C66.9086 59.6957 70.3601 62.8071 76.3926 65.2881C79.3539 66.2385 82.9855 65.6083 86.3169 63.5474C89.8384 61.3764 92.5195 57.955 93.8501 53.9132C96.6113 45.5597 94.2303 37.026 88.3077 34.0748C88.1977 34.0247 88.0576 33.9947 87.8876 33.9947V34.0147Z" fill="#FF5C6C"/>
<path d="M44.4995 37.6055L22.5901 24.2698L22.9803 23.6195L43.399 36.0649L36.2259 2.67057L36.9662 2.5105L44.4995 37.6055Z" fill="#FFCCD6"/>
<path d="M36.6654 42.1182C34.2343 42.1182 31.5932 41.1778 29.2822 39.4571C26.6511 37.4962 24.6502 34.705 23.7998 31.7838C20.8686 21.6995 22.4092 7.88356 36.3852 2.12109C38.3361 1.15067 40.1869 1.2007 41.8976 2.27115C46.3595 5.06235 48.5004 14.1963 48.4504 18.5181C48.4204 21.0992 48.2803 23.7804 48.0402 26.0913C47.8401 28.0922 47.59 29.6429 47.3399 30.4632L47.2899 30.6233C46.7697 32.0939 45.8493 34.735 44.3686 37.0961C42.4878 40.0773 40.2669 41.738 37.7658 42.0482C37.4057 42.0882 37.0355 42.1182 36.6654 42.1182ZM39.0964 2.44123C38.3661 2.44123 37.6158 2.64131 36.8154 3.03148H36.7854C23.3997 8.55384 21.9491 21.8195 24.7703 31.5137C25.5606 34.2248 27.4214 36.8259 29.8824 38.6567C32.3435 40.4875 35.1747 41.3579 37.6458 41.0578C39.8367 40.7876 41.8176 39.277 43.5283 36.5658C44.9489 34.3049 45.8493 31.7338 46.3395 30.3532L46.3995 30.1731C46.6196 29.4428 46.8597 27.9221 47.0598 26.0113C47.2899 23.7403 47.43 21.0792 47.46 18.5281C47.51 14.5164 45.4591 5.69262 41.3674 3.14153C40.637 2.68133 39.8767 2.45123 39.0964 2.45123V2.44123Z" fill="#FF5C6C"/>
<path d="M60.8462 43.2785L57.7649 10.1743L78.8339 25.1007L78.3937 25.711L58.6653 11.725L61.5865 43.2085L60.8462 43.2785Z" fill="#FFCCD6"/>
<path d="M61.7366 44.3791C61.0764 44.3791 60.4461 44.279 59.8358 44.0789C56.8345 43.0985 54.8337 41.918 53.3431 40.2273C51.8524 38.5466 50.892 36.3756 50.2217 33.2043C49.1713 28.2322 50.882 22.6398 51.9925 19.7485C53.6232 15.5167 56.0342 11.6751 58.1251 9.94434C60.6862 7.82343 62.9272 6.28277 64.948 5.21232C67.8293 3.69166 70.3003 3.16144 72.2912 3.65165C73.6217 3.97178 74.8523 4.97221 75.9727 6.60291C76.9332 8.01351 77.7935 9.91433 78.4538 12.0953C79.7644 16.4471 80.1445 21.4793 79.4542 25.2209C79.1841 26.6615 78.3438 28.7024 77.0832 30.9433C75.7727 33.2843 74.1019 35.6653 72.3712 37.6662C70.3703 39.9972 68.2794 41.818 66.3486 42.9385C64.7179 43.8789 63.1773 44.3591 61.7366 44.3591V44.3791ZM70.7705 4.482C69.2599 4.482 67.4691 5.02223 65.4182 6.1027C63.4474 7.14314 61.2764 8.65379 58.7654 10.7247C56.7945 12.3454 54.5036 16.0369 52.9329 20.1087C51.0821 24.9207 50.4618 29.4927 51.2021 32.9942C51.8324 35.9855 52.7328 38.0164 54.0934 39.557C55.464 41.1077 57.3248 42.1981 60.146 43.1185C61.8067 43.6588 63.7275 43.3086 65.8484 42.0781C67.6892 41.0076 69.6901 39.2569 71.6209 37.0159C73.3016 35.0651 74.9323 32.7341 76.2128 30.4531C77.4034 28.3322 78.2337 26.3514 78.4738 25.0308C79.1341 21.4393 78.7639 16.5872 77.4934 12.3754C76.8631 10.2945 76.0528 8.48371 75.1424 7.15315C74.182 5.74254 73.1215 4.86217 72.0511 4.61206C71.6509 4.51202 71.2207 4.46199 70.7605 4.46199L70.7705 4.482Z" fill="#FF5C6C"/>
<path d="M44.4692 83.8458C43.2015 83.8458 42.231 83.5457 41.5476 82.9554C40.8643 82.3652 40.5276 81.5148 40.5276 80.4143C40.5276 79.3139 40.8643 78.4235 41.5476 77.8333C42.231 77.243 43.2015 76.9429 44.4692 76.9429C45.7368 76.9429 46.7074 77.243 47.3709 77.8333C48.0345 78.4235 48.3712 79.2939 48.3712 80.4143C48.3712 81.5348 48.0345 82.3552 47.3709 82.9554C46.7074 83.5457 45.7368 83.8458 44.4692 83.8458Z" fill="#FF5C6C"/>
<path d="M31.1136 61.9759C30.1532 61.9759 29.4129 61.7558 28.9027 61.3056C28.3924 60.8554 28.1323 60.2252 28.1323 59.4048C28.1323 58.5845 28.3924 57.9142 28.9027 57.464C29.4129 57.0138 30.1532 56.7937 31.1136 56.7937C32.074 56.7937 32.8043 57.0138 33.3045 57.464C33.8048 57.9142 34.0549 58.5545 34.0549 59.4048C34.0549 60.2552 33.8048 60.8654 33.3045 61.3056C32.8043 61.7458 32.074 61.9759 31.1136 61.9759Z" fill="#FF5C6C"/>
<path d="M59.3958 57.2945C58.4354 57.2945 57.6951 57.0744 57.1849 56.6242C56.6747 56.174 56.4146 55.5438 56.4146 54.7234C56.4146 53.9031 56.6747 53.2328 57.1849 52.7826C57.6951 52.3324 58.4354 52.1123 59.3958 52.1123C60.3562 52.1123 61.0865 52.3324 61.5868 52.7826C62.087 53.2328 62.3371 53.8731 62.3371 54.7234C62.3371 55.5738 62.087 56.184 61.5868 56.6242C61.0865 57.0644 60.3562 57.2945 59.3958 57.2945Z" fill="#FF5C6C"/>
<path d="M20.8092 39.0763C19.8487 39.0763 19.1084 38.8562 18.5982 38.406C18.088 37.9558 17.8279 37.3255 17.8279 36.5052C17.8279 35.6848 18.088 35.0145 18.5982 34.5643C19.1084 34.1141 19.8487 33.894 20.8092 33.894C21.7696 33.894 22.4999 34.1141 23.0001 34.5643C23.5003 35.0145 23.7504 35.6548 23.7504 36.5052C23.7504 37.3555 23.5003 37.9658 23.0001 38.406C22.4999 38.8462 21.7696 39.0763 20.8092 39.0763Z" fill="#FF5C6C"/>
<path d="M28.4325 53.0423C27.472 53.0423 26.7317 52.8222 26.2215 52.372C25.7113 51.9218 25.4512 51.2916 25.4512 50.4712C25.4512 49.6509 25.7113 48.9806 26.2215 48.5304C26.7317 48.0802 27.472 47.8601 28.4325 47.8601C29.3929 47.8601 30.1232 48.0802 30.6234 48.5304C31.1236 48.9806 31.3737 49.6209 31.3737 50.4712C31.3737 51.3216 31.1236 51.9318 30.6234 52.372C30.1232 52.8122 29.3929 53.0423 28.4325 53.0423Z" fill="#FF5C6C"/>
<path d="M22.4998 27.742C21.5394 27.742 20.7991 27.5219 20.2889 27.0717C19.7787 26.6216 19.5186 25.9913 19.5186 25.1709C19.5186 24.3506 19.7787 23.6803 20.2889 23.2301C20.7991 22.7799 21.5394 22.5598 22.4998 22.5598C23.4602 22.5598 24.1906 22.7799 24.6908 23.2301C25.191 23.6803 25.4411 24.3206 25.4411 25.1709C25.4411 26.0213 25.191 26.6316 24.6908 27.0717C24.1906 27.5119 23.4602 27.742 22.4998 27.742Z" fill="#FF5C6C"/>
<path d="M36.616 5.18222C35.6556 5.18222 34.9153 4.96212 34.4051 4.51193C33.8949 4.06174 33.6348 3.43147 33.6348 2.61112C33.6348 1.79077 33.8949 1.12048 34.4051 0.670287C34.9153 0.220094 35.6556 0 36.616 0C37.5765 0 38.3068 0.220094 38.807 0.670287C39.3072 1.12048 39.5573 1.76075 39.5573 2.61112C39.5573 3.46148 39.3072 4.07174 38.807 4.51193C38.3068 4.95212 37.5765 5.18222 36.616 5.18222Z" fill="#FF5C6C"/>
<path d="M61.3463 46.4796C60.3859 46.4796 59.6455 46.2595 59.1353 45.8093C58.6251 45.3591 58.365 44.7288 58.365 43.9085C58.365 43.0881 58.6251 42.4178 59.1353 41.9677C59.6455 41.5175 60.3859 41.2974 61.3463 41.2974C62.3067 41.2974 63.037 41.5175 63.5372 41.9677C64.0374 42.4178 64.2875 43.0581 64.2875 43.9085C64.2875 44.7588 64.0374 45.3691 63.5372 45.8093C63.037 46.2495 62.3067 46.4796 61.3463 46.4796Z" fill="#FF5C6C"/>
<path d="M79.2337 28.6422C78.2733 28.6422 77.533 28.4221 77.0228 27.9719C76.5125 27.5217 76.2524 26.8914 76.2524 26.0711C76.2524 25.2507 76.5125 24.5804 77.0228 24.1302C77.533 23.6801 78.2733 23.46 79.2337 23.46C80.1941 23.46 80.9244 23.6801 81.4247 24.1302C81.9249 24.5804 82.175 25.2207 82.175 26.0711C82.175 26.9214 81.9249 27.5317 81.4247 27.9719C80.9244 28.4121 80.1941 28.6422 79.2337 28.6422Z" fill="#FF5C6C"/>
<path d="M89.148 36.8861C88.1876 36.8861 87.4473 36.666 86.9371 36.2158C86.4269 35.7656 86.1667 35.1353 86.1667 34.315C86.1667 33.4946 86.4269 32.8243 86.9371 32.3741C87.4473 31.924 88.1876 31.7039 89.148 31.7039C90.1084 31.7039 90.8388 31.924 91.339 32.3741C91.8392 32.8243 92.0893 33.4646 92.0893 34.315C92.0893 35.1653 91.8392 35.7756 91.339 36.2158C90.8388 36.656 90.1084 36.8861 89.148 36.8861Z" fill="#FF5C6C"/>
<path d="M66.5687 52.4625C65.6083 52.4625 64.868 52.2424 64.3577 51.7922C63.8475 51.342 63.5874 50.7117 63.5874 49.8914C63.5874 49.071 63.8475 48.4008 64.3577 47.9506C64.868 47.5004 65.6083 47.2803 66.5687 47.2803C67.5291 47.2803 68.2594 47.5004 68.7596 47.9506C69.2598 48.4008 69.5099 49.041 69.5099 49.8914C69.5099 50.7418 69.2598 51.352 68.7596 51.7922C68.2594 52.2324 67.5291 52.4625 66.5687 52.4625Z" fill="#FF5C6C"/>
<path d="M90.3588 65.0482C89.0912 65.0482 88.1206 64.7481 87.4373 64.1578C86.754 63.5676 86.4172 62.7172 86.4172 61.6168C86.4172 60.5163 86.754 59.6259 87.4373 59.0356C88.1206 58.4454 89.0912 58.1453 90.3588 58.1453C91.6265 58.1453 92.597 58.4454 93.2606 59.0356C93.9241 59.6259 94.2608 60.4963 94.2608 61.6168C94.2608 62.7372 93.9241 63.5576 93.2606 64.1578C92.597 64.7481 91.6265 65.0482 90.3588 65.0482Z" fill="#FF5C6C"/>
<path d="M58.1948 14.4064C56.9271 14.4064 55.9566 14.1062 55.2732 13.516C54.5899 12.9257 54.2532 12.0754 54.2532 10.9749C54.2532 9.87443 54.5899 8.98405 55.2732 8.3938C55.9566 7.80355 56.9271 7.50342 58.1948 7.50342C59.4624 7.50342 60.433 7.80355 61.0965 8.3938C61.76 8.98405 62.0968 9.85442 62.0968 10.9749C62.0968 12.0954 61.76 12.9157 61.0965 13.516C60.433 14.1062 59.4624 14.4064 58.1948 14.4064Z" fill="#FF5C6C"/>
<path d="M43.9287 40.3268C42.661 40.3268 41.6905 40.0267 41.0071 39.4364C40.3238 38.8461 39.9871 37.9958 39.9871 36.8953C39.9871 35.7948 40.3238 34.9045 41.0071 34.3142C41.6905 33.724 42.661 33.4238 43.9287 33.4238C45.1963 33.4238 46.1669 33.724 46.8304 34.3142C47.4939 34.9045 47.8306 35.7748 47.8306 36.8953C47.8306 38.0158 47.4939 38.8361 46.8304 39.4364C46.1669 40.0267 45.1963 40.3268 43.9287 40.3268Z" fill="#FF5C6C"/>
<path d="M3.9416 46.7003C2.67395 46.7003 1.70341 46.4002 1.02006 45.8099C0.33672 45.2197 0 44.3693 0 43.2689C0 42.1684 0.33672 41.278 1.02006 40.6877C1.70341 40.0975 2.67395 39.7974 3.9416 39.7974C5.20925 39.7974 6.1798 40.0975 6.84333 40.6877C7.50687 41.278 7.84359 42.1484 7.84359 43.2689C7.84359 44.3893 7.50687 45.2097 6.84333 45.8099C6.1798 46.4002 5.20925 46.7003 3.9416 46.7003Z" fill="#FF5C6C"/>
</svg>
