<?xml version="1.0" encoding="UTF-8" standalone="no"?>
<!-- Created with Inkscape (http://www.inkscape.org/) -->

<svg
   width="210mm"
   height="297mm"
   viewBox="0 0 210 297"
   version="1.1"
   id="svg5"
   inkscape:version="1.1.2 (b8e25be833, 2022-02-05)"
   sodipodi:docname="menu-icon-white.svg"
   xmlns:inkscape="http://www.inkscape.org/namespaces/inkscape"
   xmlns:sodipodi="http://sodipodi.sourceforge.net/DTD/sodipodi-0.dtd"
   xmlns="http://www.w3.org/2000/svg"
   xmlns:svg="http://www.w3.org/2000/svg">
  <sodipodi:namedview
     id="namedview7"
     pagecolor="#ffffff"
     bordercolor="#666666"
     borderopacity="1.0"
     inkscape:pageshadow="2"
     inkscape:pageopacity="0.0"
     inkscape:pagecheckerboard="0"
     inkscape:document-units="mm"
     showgrid="false"
     inkscape:zoom="0.5499273"
     inkscape:cx="468.24371"
     inkscape:cy="592.80563"
     inkscape:window-width="1920"
     inkscape:window-height="1009"
     inkscape:window-x="3432"
     inkscape:window-y="-8"
     inkscape:window-maximized="1"
     inkscape:current-layer="g14898" />
  <defs
     id="defs2" />
  <g
     inkscape:label="Capa 1"
     inkscape:groupmode="layer"
     id="layer1">
    <g
       id="g14721"
       transform="matrix(0.99992256,0,0,1.0082028,9.6299296,-27.098143)">
      <g
         id="g14898">
        <g
           id="g15000"
           transform="matrix(0.07718743,-0.0210554,0.02140556,0.07718743,42.314194,145.80096)"
           style="stroke-width:87.13795321;stroke-miterlimit:4;stroke-dasharray:none;stroke:#000000;stroke-opacity:1">
          <g
             id="g15599"
             transform="matrix(0.98395747,0.17693796,-0.1798805,0.98395748,-91.002464,377.12993)"
             style="stroke:#000000;stroke-opacity:1;stroke-width:87.13795315;stroke-miterlimit:4;stroke-dasharray:none">
            <path
               style="fill:none;stroke:#000000;stroke-width:87.13795315;stroke-linecap:round;stroke-linejoin:round;stroke-miterlimit:4;stroke-dasharray:none;stroke-opacity:1;paint-order:normal"
               d="M 65.136708,-438.49009 C -96.215905,-923.01384 254.14136,-1169.1087 254.14136,-1169.1087 c 178.15738,-111.8954 348.53299,-141.3126 467.55104,-127.3413 137.61222,98.7212 153.32445,284.3071 112.47753,464.04715 -48.61069,183.00015 -75.7095,327.65195 -155.64396,480.54846 -166.91625,233.26636 -476.96179,185.85906 -613.389262,-86.6357 z"
               id="use14706"
               sodipodi:nodetypes="cccccc" />
            <path
               style="fill:none;stroke:#000000;stroke-width:87.13795315;stroke-linecap:round;stroke-linejoin:round;stroke-miterlimit:4;stroke-dasharray:none;stroke-opacity:1;paint-order:normal"
               d="M 838.12327,-289.55129 C 821.74382,-35.312903 895.92066,-37.567981 989.30746,7.7790077 1193.901,63.278589 1296.8863,51.862371 1390.5205,-41.868509 c 64.4499,-80.588511 192.0309,-280.462511 249.1299,-505.838511 40.0818,-175.97813 -35.656,-377.90475 -192.9111,-543.12318 -597.11176,41.4796 -570.39397,500.07347 -608.61603,801.27891 z"
               id="use14708"
               sodipodi:nodetypes="cccccc" />
            <path
               style="fill:none;stroke:#000000;stroke-width:87.13795315;stroke-linecap:round;stroke-linejoin:round;stroke-miterlimit:4;stroke-dasharray:none;stroke-opacity:1;paint-order:normal"
               d="M 1706.0161,5.3917391 C 1855.0308,143.62725 1872.8114,345.91373 1849.0514,485.69632 c -85.1729,211.13575 -177.0771,379.97482 -318.3122,443.09942 -77.5541,19.91659 -151.1225,54.50632 -244.3309,16.79275 C 1072.814,868.22975 1048.5055,766.07459 1044.3458,661.28245 1076.4167,365.53359 1124.6794,321.57277 1198.2514,240.80401 1377.7174,75.824472 1540.0741,55.794699 1706.0161,5.3917391 Z"
               id="use14710"
               sodipodi:nodetypes="ccccccc" />
            <path
               style="fill:none;stroke:#000000;stroke-width:87.13795315;stroke-linecap:round;stroke-linejoin:round;stroke-miterlimit:4;stroke-dasharray:none;stroke-opacity:1;paint-order:normal"
               d="m -369.76929,-469.6325 c -118.91665,88.78105 -169.94347,146.84309 -199.166,313.38358 -29.3896,195.341071 -44.42212,289.29362 78.45459,425.1769 126.32359,82.6092 269.67149,101.82407 396.435924,72.95433 C -6.9493682,290.34678 93.193419,223.64252 84.559348,58.420558 74.213085,-66.451248 58.37148,-196.20691 -70.971202,-337.48657 -174.1068,-450.39353 -277.01129,-454.01494 -369.76929,-469.6325 Z"
               id="use14712"
               sodipodi:nodetypes="ccccccc" />
            <path
               style="fill:none;stroke:#000000;stroke-width:87.13795315;stroke-linecap:round;stroke-linejoin:round;stroke-miterlimit:4;stroke-dasharray:none;stroke-opacity:1;paint-order:normal"
               d="M -382.07494,1071.1326 C -583.84296,1029.9145 -567.10386,741.34778 -508.49891,659.47657 -368.38304,544.85512 79.549908,460.37079 137.70693,449.79269 307.26915,418.95672 564.88008,457.34344 691.81569,580.87157 1065.1389,950.64765 1092.8871,1037.147 1130.9754,1237.437 1102.002,1344.2216 1018.308,1391.0942 877.33923,1375.2543 712.94335,1295.1007 645.80013,1149.2189 458.27748,1027.0727 383.10156,988.69068 306.48092,950.94443 173.70081,937.86371 -37.606723,940.42812 -127.66766,1098.6946 -382.07494,1071.1326 Z"
               id="use14714"
               sodipodi:nodetypes="ccscccccc" />
          </g>
        </g>
      </g>
    </g>
  </g>
</svg>
