<svg width="1024" height="1024" viewBox="0 0 1024 1024" fill="none" xmlns="http://www.w3.org/2000/svg">
<g clip-path="url(#clip0_146_2103)">
<rect width="1024" height="1024" rx="12" fill="#1A1A2E"/>
<path d="M419.319 551.332L294.655 516.027L378.511 481.793L379.923 485.202L305.855 515.394L420.293 547.826L419.319 551.332Z" fill="#FFCCD6"/>
<path d="M354.893 603.729C353.48 603.729 352.019 603.681 350.607 603.535C339.796 602.609 326.892 594.964 316.032 583.082C303.955 569.836 296.018 553.084 293.632 535.894C292.414 526.983 293.534 516.318 297.04 504.144C299.914 494.112 304.442 482.961 310.091 471.906C314.961 462.459 320.61 453.256 325.967 446C328.499 442.591 330.836 439.766 332.979 437.575C335.414 435.092 337.41 433.631 339.163 433.046C343.351 431.634 356.11 427.397 366.336 435.773C369.453 438.354 371.206 440.789 372.18 443.954C372.57 445.269 372.813 446.681 373.057 448.24L373.154 449.019C373.349 450.236 373.544 451.502 373.836 452.963C375.151 459.635 378.511 471.03 392.779 492.408C395.116 495.914 397.989 499.226 401.544 503.219L401.983 503.706C405.197 507.309 408.508 511.01 411.43 515.052C416.3 521.821 422.435 532.534 419.367 547.582C416.64 561.071 407.972 575.534 396.09 586.345C383.673 597.642 369.161 603.681 354.795 603.681L354.893 603.729ZM351.727 435.627C347.734 435.627 343.838 436.65 340.722 437.721C340.283 437.867 338.969 438.5 336.485 441.033C334.537 442.98 332.297 445.707 329.911 448.921C324.7 455.934 319.246 464.894 314.474 474.147C308.923 484.909 304.54 495.768 301.764 505.507C298.501 517.049 297.381 527.032 298.501 535.261C300.693 551.477 308.241 567.304 319.636 579.819C329.521 590.679 341.55 597.886 350.997 598.714C365.411 599.931 380.264 594.282 392.876 582.79C403.979 572.661 412.112 559.172 414.644 546.656C416.689 536.479 414.498 527.616 407.534 517.925C404.758 514.078 401.544 510.475 398.428 506.968L397.989 506.481C394.435 502.488 391.318 498.885 388.786 495.135C374.031 473.027 370.476 460.998 369.112 453.937C368.82 452.379 368.625 451.015 368.43 449.798L368.333 449.019C368.138 447.704 367.943 446.535 367.603 445.415C367.018 443.516 366.093 441.812 363.317 439.572C359.714 436.601 355.672 435.627 351.727 435.627Z" fill="#FF5C6C"/>
<path d="M568.722 720.166C560.735 720.166 552.311 719.143 543.691 716.563C536.387 714.371 530.981 712.18 527.086 710.475L523.239 708.771C520.463 707.554 517.979 706.434 515.301 705.46C508.045 702.781 499.718 701.126 482.82 701.807C468.941 702.392 456.037 705.995 443.619 709.453C439.187 710.67 434.756 711.936 430.324 713.008C413.962 717.049 396.042 719.63 375.93 711.011C363.756 705.8 355.234 694.308 352.458 679.455C349.78 665.09 353.286 649.75 361.856 638.501C370.524 627.106 382.65 620.045 394.337 613.227L395.263 612.692C406.366 606.215 417.858 599.543 424.919 588.83C430.909 579.821 434.512 572.03 437.97 564.482L440.113 559.855C444.154 551.333 448.878 542.13 458.471 531.611C467.724 521.433 484.086 515.249 502.25 514.957C521.047 514.811 539.016 520.849 551.288 531.806C554.453 534.63 557.424 539.451 560.881 547.438C562.927 552.161 564.923 557.469 567.066 563.118L569.647 569.936C572.471 577.289 575.929 585.811 579.971 593.359C584.207 601.345 588.493 607.14 593.07 611.085C601.446 618.341 609.286 621.555 616.932 624.671C618.636 625.353 620.34 626.035 621.947 626.765C625.989 628.518 630.616 630.807 634.852 634.508C639.089 638.258 642.4 643.079 644.981 649.263C649.9 661.048 649.218 674.05 643.033 685.932C638.066 695.525 629.836 703.609 621.607 707.067L619.805 707.846C609.384 712.228 590.684 720.117 568.624 720.117L568.722 720.166ZM490.124 696.743C503.029 696.743 510.382 698.399 517.005 700.833C519.732 701.856 522.362 703.025 525.235 704.291L529.033 705.947C532.783 707.554 538.042 709.696 545.103 711.839C575.977 721.091 604.368 709.112 618.052 703.366L619.853 702.586C626.963 699.616 634.414 692.214 638.845 683.692C642.741 676.241 646.199 664.554 640.598 651.162C638.31 645.66 635.437 641.423 631.736 638.16C628.035 634.898 623.798 632.804 620.146 631.245C618.539 630.564 616.883 629.882 615.227 629.2C607.631 626.083 599.011 622.577 590.051 614.834C585.035 610.5 580.36 604.218 575.831 595.745C571.692 587.954 568.186 579.237 565.264 571.786L562.634 564.92C560.492 559.32 558.495 554.06 556.499 549.434C554.551 544.905 551.531 538.526 548.123 535.507C536.776 525.378 520.171 519.68 502.396 519.924C485.547 520.167 470.5 525.767 462.124 534.971C452.969 545.051 448.44 553.866 444.593 562.047L442.45 566.624C438.895 574.318 435.194 582.305 429.01 591.606C421.316 603.244 408.8 610.549 397.746 616.977L396.821 617.513C385.523 624.087 373.836 630.904 365.752 641.52C358.009 651.698 354.844 665.577 357.279 678.628C359.714 691.873 367.213 702.051 377.878 706.58C396.626 714.615 413.621 712.131 429.156 708.333C433.539 707.261 437.921 706.044 442.304 704.778C455.014 701.223 468.162 697.571 482.625 696.938C485.303 696.84 487.787 696.792 490.076 696.792L490.124 696.743Z" fill="#FF5C6C"/>
<path d="M494.604 698.788L425.454 591.168L428.522 589.22L494.458 691.824L565.897 569.936L569.062 571.786L494.604 698.788Z" fill="#FFCCD6"/>
<path d="M716.712 603.001L601.202 548.412L602.761 545.1L712.816 597.109L707.118 467.867L710.771 467.672L716.712 603.001Z" fill="#FFCCD6"/>
<path d="M663.827 628.811C658.373 628.811 653.113 628.032 648.146 626.425C617.029 613.618 599.254 597.304 595.164 577.777C591.56 560.587 599.644 544.712 608.41 535.557C617.516 525.574 630.08 513.789 643.715 502.394C657.545 490.901 671.229 480.87 682.332 474.198C688.419 470.546 693.678 467.868 697.963 466.309C700.398 465.433 702.492 464.897 704.343 464.702C706.632 464.459 708.531 464.702 710.089 465.53C741.06 480.967 753.673 524.989 739.502 567.989C732.636 588.734 718.903 606.313 700.788 617.514C688.76 624.916 675.952 628.763 663.924 628.763L663.827 628.811ZM705.804 469.572C705.463 469.572 705.122 469.572 704.781 469.621C703.369 469.767 701.616 470.205 699.57 470.936C695.577 472.348 690.61 474.88 684.815 478.386C673.956 484.96 660.467 494.797 646.832 506.144C633.342 517.393 620.973 528.982 611.964 538.868C604.368 546.757 596.722 561.366 599.936 576.754C603.686 594.577 620.486 609.722 649.851 621.799C664.265 626.425 681.942 623.357 698.158 613.326C715.3 602.759 728.35 586.104 734.827 566.431C748.267 525.768 736.678 484.23 707.849 469.864C707.313 469.621 706.632 469.475 705.804 469.475V469.572Z" fill="#FF5C6C"/>
<path d="M494.605 487.051L387.958 422.138L389.858 418.972L489.248 479.552L454.332 317.001L457.936 316.222L494.605 487.051Z" fill="#FFCCD6"/>
<path d="M456.474 509.015C444.641 509.015 431.785 504.437 420.536 496.061C407.729 486.517 397.989 472.93 393.85 458.711C379.582 409.624 387.081 342.374 455.111 314.324C464.607 309.6 473.616 309.844 481.943 315.054C503.662 328.641 514.083 373.101 513.84 394.139C513.694 406.702 513.012 419.753 511.843 431.002C510.869 440.742 509.652 448.29 508.434 452.283L508.191 453.062C505.658 460.22 501.178 473.076 493.971 484.569C484.816 499.081 474.005 507.164 461.831 508.674C460.078 508.869 458.276 509.015 456.474 509.015ZM468.308 315.882C464.753 315.882 461.101 316.856 457.205 318.755H457.059C391.902 345.636 384.841 410.209 398.574 457.396C402.421 470.593 411.478 483.254 423.458 492.166C435.437 501.077 449.219 505.314 461.247 503.853C471.911 502.538 481.553 495.185 489.881 481.988C496.796 470.982 501.178 458.467 503.565 451.747L503.857 450.871C504.928 447.316 506.097 439.914 507.071 430.613C508.191 419.558 508.872 406.605 509.019 394.187C509.262 374.66 499.279 331.709 479.362 319.291C475.807 317.051 472.106 315.931 468.308 315.931V315.882Z" fill="#FF5C6C"/>
<path d="M574.175 514.664L559.176 353.525L661.732 426.181L659.59 429.152L563.559 361.073L577.779 514.323L574.175 514.664Z" fill="#FFCCD6"/>
<path d="M578.509 520.022C575.295 520.022 572.227 519.535 569.257 518.561C554.648 513.789 544.908 508.043 537.653 499.813C530.397 491.632 525.722 481.065 522.459 465.628C517.346 441.425 525.673 414.204 531.078 400.13C539.016 379.531 550.752 360.832 560.93 352.407C573.396 342.083 584.304 334.584 594.141 329.373C608.166 321.971 620.194 319.39 629.885 321.777C636.362 323.335 642.351 328.205 647.805 336.142C652.48 343.008 656.668 352.261 659.882 362.877C666.261 384.06 668.112 408.555 664.752 426.767C663.437 433.78 659.347 443.714 653.211 454.622C646.831 466.017 638.699 477.607 630.274 487.347C620.535 498.693 610.357 507.556 600.959 513.01C593.021 517.587 585.522 519.925 578.509 519.925V520.022ZM622.483 325.818C615.13 325.818 606.413 328.448 596.43 333.707C586.837 338.772 576.269 346.125 564.046 356.205C554.453 364.094 543.301 382.063 535.656 401.883C526.647 425.306 523.628 447.561 527.231 464.605C530.299 479.165 534.682 489.051 541.305 496.55C547.976 504.098 557.034 509.406 570.767 513.886C578.85 516.516 588.2 514.812 598.524 508.822C607.484 503.611 617.224 495.089 626.622 484.181C634.803 474.685 642.741 463.339 648.974 452.236C654.769 441.912 658.811 432.27 659.98 425.842C663.194 408.36 661.392 384.742 655.207 364.24C652.139 354.111 648.195 345.297 643.763 338.821C639.089 331.954 633.927 327.669 628.716 326.451C626.768 325.964 624.674 325.721 622.434 325.721L622.483 325.818Z" fill="#FF5C6C"/>
<path d="M494.458 712.13C488.288 712.13 483.564 710.669 480.237 707.796C476.911 704.923 475.272 700.784 475.272 695.427C475.272 690.071 476.911 685.737 480.237 682.863C483.564 679.99 488.288 678.529 494.458 678.529C500.629 678.529 505.353 679.99 508.583 682.863C511.813 685.737 513.452 689.973 513.452 695.427C513.452 700.881 511.813 704.874 508.583 707.796C505.353 710.669 500.629 712.13 494.458 712.13Z" fill="#FF5C6C"/>
<path d="M429.448 605.677C424.773 605.677 421.17 604.606 418.686 602.414C416.203 600.223 414.936 597.155 414.936 593.162C414.936 589.169 416.203 585.906 418.686 583.715C421.17 581.523 424.773 580.452 429.448 580.452C434.123 580.452 437.678 581.523 440.113 583.715C442.548 585.906 443.765 589.023 443.765 593.162C443.765 597.301 442.548 600.272 440.113 602.414C437.678 604.557 434.123 605.677 429.448 605.677Z" fill="#FF5C6C"/>
<path d="M567.115 582.89C562.44 582.89 558.836 581.818 556.353 579.627C553.869 577.436 552.603 574.368 552.603 570.375C552.603 566.381 553.869 563.119 556.353 560.927C558.836 558.736 562.44 557.665 567.115 557.665C571.79 557.665 575.345 558.736 577.779 560.927C580.214 563.119 581.432 566.235 581.432 570.375C581.432 574.514 580.214 577.484 577.779 579.627C575.345 581.77 571.79 582.89 567.115 582.89Z" fill="#FF5C6C"/>
<path d="M379.29 494.209C374.615 494.209 371.011 493.138 368.528 490.947C366.044 488.755 364.778 485.687 364.778 481.694C364.778 477.701 366.044 474.438 368.528 472.247C371.011 470.056 374.615 468.984 379.29 468.984C383.965 468.984 387.519 470.056 389.954 472.247C392.389 474.438 393.607 477.555 393.607 481.694C393.607 485.833 392.389 488.804 389.954 490.947C387.519 493.089 383.965 494.209 379.29 494.209Z" fill="#FF5C6C"/>
<path d="M416.397 562.192C411.722 562.192 408.119 561.12 405.635 558.929C403.152 556.737 401.886 553.67 401.886 549.676C401.886 545.683 403.152 542.421 405.635 540.229C408.119 538.038 411.722 536.966 416.397 536.966C421.072 536.966 424.627 538.038 427.062 540.229C429.497 542.421 430.714 545.537 430.714 549.676C430.714 553.816 429.497 556.786 427.062 558.929C424.627 561.071 421.072 562.192 416.397 562.192Z" fill="#FF5C6C"/>
<path d="M387.52 439.038C382.845 439.038 379.242 437.967 376.758 435.775C374.274 433.584 373.008 430.516 373.008 426.523C373.008 422.53 374.274 419.267 376.758 417.076C379.242 414.884 382.845 413.813 387.52 413.813C392.195 413.813 395.75 414.884 398.185 417.076C400.62 419.267 401.837 422.384 401.837 426.523C401.837 430.662 400.62 433.633 398.185 435.775C395.75 437.918 392.195 439.038 387.52 439.038Z" fill="#FF5C6C"/>
<path d="M456.231 329.225C451.556 329.225 447.953 328.154 445.469 325.962C442.986 323.771 441.72 320.703 441.72 316.71C441.72 312.717 442.986 309.454 445.469 307.263C447.953 305.071 451.556 304 456.231 304C460.906 304 464.461 305.071 466.896 307.263C469.331 309.454 470.548 312.571 470.548 316.71C470.548 320.849 469.331 323.82 466.896 325.962C464.461 328.105 460.906 329.225 456.231 329.225Z" fill="#FF5C6C"/>
<path d="M576.61 530.246C571.935 530.246 568.332 529.175 565.848 526.984C563.364 524.792 562.098 521.724 562.098 517.731C562.098 513.738 563.364 510.475 565.848 508.284C568.332 506.092 571.935 505.021 576.61 505.021C581.285 505.021 584.84 506.092 587.275 508.284C589.71 510.475 590.927 513.592 590.927 517.731C590.927 521.87 589.71 524.841 587.275 526.984C584.84 529.126 581.285 530.246 576.61 530.246Z" fill="#FF5C6C"/>
<path d="M663.681 443.421C659.006 443.421 655.402 442.35 652.919 440.159C650.435 437.967 649.169 434.899 649.169 430.906C649.169 426.913 650.435 423.65 652.919 421.459C655.402 419.268 659.006 418.196 663.681 418.196C668.355 418.196 671.91 419.268 674.345 421.459C676.78 423.65 677.998 426.767 677.998 430.906C677.998 435.045 676.78 438.016 674.345 440.159C671.91 442.301 668.355 443.421 663.681 443.421Z" fill="#FF5C6C"/>
<path d="M711.94 483.547C707.265 483.547 703.661 482.476 701.178 480.284C698.694 478.093 697.428 475.025 697.428 471.032C697.428 467.039 698.694 463.776 701.178 461.585C703.661 459.393 707.265 458.322 711.94 458.322C716.615 458.322 720.17 459.393 722.604 461.585C725.039 463.776 726.257 466.893 726.257 471.032C726.257 475.171 725.039 478.142 722.604 480.284C720.17 482.427 716.615 483.547 711.94 483.547Z" fill="#FF5C6C"/>
<path d="M602.03 559.369C597.355 559.369 593.751 558.298 591.268 556.107C588.784 553.915 587.518 550.847 587.518 546.854C587.518 542.861 588.784 539.598 591.268 537.407C593.751 535.216 597.355 534.144 602.03 534.144C606.705 534.144 610.26 535.216 612.694 537.407C615.129 539.598 616.347 542.715 616.347 546.854C616.347 550.993 615.129 553.964 612.694 556.107C610.26 558.249 606.705 559.369 602.03 559.369Z" fill="#FF5C6C"/>
<path d="M717.832 620.63C711.661 620.63 706.937 619.169 703.611 616.296C700.285 613.423 698.645 609.284 698.645 603.927C698.645 598.57 700.285 594.236 703.611 591.363C706.937 588.49 711.661 587.029 717.832 587.029C724.002 587.029 728.726 588.49 731.956 591.363C735.186 594.236 736.825 598.473 736.825 603.927C736.825 609.381 735.186 613.374 731.956 616.296C728.726 619.169 724.002 620.63 717.832 620.63Z" fill="#FF5C6C"/>
<path d="M561.27 374.125C555.1 374.125 550.376 372.664 547.049 369.791C543.723 366.918 542.084 362.779 542.084 357.422C542.084 352.066 543.723 347.732 547.049 344.858C550.376 341.985 555.1 340.524 561.27 340.524C567.441 340.524 572.165 341.985 575.395 344.858C578.625 347.732 580.264 351.968 580.264 357.422C580.264 362.876 578.625 366.87 575.395 369.791C572.165 372.664 567.441 374.125 561.27 374.125Z" fill="#FF5C6C"/>
<path d="M491.829 500.297C485.658 500.297 480.934 498.836 477.608 495.963C474.281 493.09 472.642 488.95 472.642 483.594C472.642 478.237 474.281 473.903 477.608 471.03C480.934 468.157 485.658 466.696 491.829 466.696C497.999 466.696 502.723 468.157 505.953 471.03C509.183 473.903 510.822 478.14 510.822 483.594C510.822 489.048 509.183 493.041 505.953 495.963C502.723 498.836 497.999 500.297 491.829 500.297Z" fill="#FF5C6C"/>
<path d="M297.186 531.319C291.016 531.319 286.292 529.858 282.965 526.985C279.639 524.112 278 519.973 278 514.616C278 509.259 279.639 504.925 282.965 502.052C286.292 499.179 291.016 497.718 297.186 497.718C303.357 497.718 308.081 499.179 311.311 502.052C314.541 504.925 316.18 509.162 316.18 514.616C316.18 520.07 314.541 524.063 311.311 526.985C308.081 529.858 303.357 531.319 297.186 531.319Z" fill="#FF5C6C"/>
</g>
<defs>
<clipPath id="clip0_146_2103">
<rect width="1024" height="1024" fill="white"/>
</clipPath>
</defs>
</svg>
