<svg width="112" height="112" viewBox="0 0 112 112" fill="none" xmlns="http://www.w3.org/2000/svg">
<g filter="url(#filter0_d_74_16)">
<rect x="24" y="20" width="64" height="64" rx="12" fill="#FF5C6C"/>
</g>
<path d="M55.6074 70.2461C58.8473 70.2461 61.4734 70.637 61.4736 71.1191C61.4736 71.6026 58.8474 71.9932 55.6074 71.9932C52.3677 71.9931 49.7422 71.6026 49.7422 71.1191C49.7424 70.637 52.3678 70.2461 55.6074 70.2461ZM55.667 32C63.7668 32.0002 70.333 38.5221 70.333 46.5664C70.1468 51.0008 68.004 55.1281 64.4736 57.8486L61.0361 60.499C59.6388 61.577 58.5872 63.0373 58.0137 64.7012L57.6084 65.8721C57.3241 66.6962 56.5434 67.2489 55.667 67.249C54.7892 67.249 54.009 66.6964 53.7246 65.8721L53.3193 64.7012C52.7458 63.0374 51.6945 61.577 50.2959 60.499L46.8584 57.8486C43.3292 55.1281 41.1862 51.0008 41 46.5664C41 38.522 47.567 32 55.667 32ZM55.7588 45.4863C55.2082 45.471 54.675 45.6305 54.3613 45.9492C54.0529 46.2627 53.8871 46.5435 53.7354 46.834C53.5837 47.1243 53.4467 47.4219 53.1924 47.7744C52.9415 48.1222 52.5596 48.3298 52.1611 48.541C51.7653 48.7508 51.3529 48.9642 51.0566 49.3242C50.7588 49.6863 50.6497 50.1629 50.7109 50.5947C50.7722 51.0266 51.0046 51.4174 51.3916 51.6025C51.9996 51.8936 52.5581 51.8497 53.1191 51.7354C53.682 51.6206 54.2419 51.4366 54.8691 51.4365C55.4328 51.4365 55.7119 51.504 55.958 51.6074C56.0824 51.6597 56.198 51.7205 56.3398 51.7891C56.4812 51.8574 56.6463 51.9324 56.8662 52.0088C57.9374 52.3807 58.9289 51.9738 59.3809 51.8057C59.6154 51.7183 59.8908 51.4877 60.0693 51.1758C60.2484 50.8627 60.3316 50.464 60.1768 50.042C60.0998 49.8323 60.0005 49.6846 59.8838 49.5723C59.7675 49.4605 59.6349 49.3846 59.4932 49.3154C59.2081 49.1763 58.8852 49.0631 58.5498 48.7471C58.3842 48.5909 58.2459 48.3724 58.127 48.124C58.0081 47.8759 57.9083 47.6 57.8174 47.3311C57.7267 47.063 57.6443 46.8003 57.5605 46.582C57.4772 46.3649 57.3901 46.1845 57.2871 46.084C56.886 45.6926 56.3101 45.5016 55.7588 45.4863ZM61.5898 43.6758C61.5316 43.6871 61.4654 43.7107 61.3936 43.7441C61.2496 43.8112 61.0775 43.9199 60.8896 44.0576C60.5138 44.3332 60.0695 44.7286 59.6465 45.1504C59.2234 45.5723 58.8208 46.0216 58.5293 46.4062C58.3837 46.5984 58.2651 46.7752 58.1855 46.9248C58.1458 46.9996 58.1148 47.0688 58.0957 47.1299C58.0768 47.1903 58.0688 47.2457 58.0752 47.293C58.2071 48.2547 59.0364 49.0618 60.1396 49.3115C60.6976 49.4377 61.3307 49.257 61.8672 48.8555C62.404 48.4536 62.8473 47.8285 63.0273 47.0605C63.3859 45.5306 62.8006 44.0983 61.7441 43.6816C61.7002 43.6644 61.6475 43.6645 61.5898 43.6758ZM51.2607 42.6904C50.9424 42.4739 50.5828 42.6031 50.3887 42.6875C50.3401 42.7087 50.2821 42.7646 50.2197 42.8408C50.1562 42.9185 50.0841 43.022 50.0088 43.1455C49.8579 43.3929 49.6916 43.7225 49.5439 44.0859C49.3963 44.4494 49.2674 44.8483 49.1934 45.2354C49.1195 45.6219 49.0994 45.9991 49.1719 46.3184C49.3156 46.9515 49.6676 47.4811 50.0693 47.8516C50.47 48.2211 50.9246 48.4367 51.2754 48.4355C51.8598 48.4337 52.3701 48.1326 52.7451 47.7236C53.1197 47.315 53.3626 46.7945 53.4121 46.3477C53.4619 45.8967 53.2893 45.5741 53.0566 45.3037C52.9406 45.1689 52.8088 45.0457 52.6826 44.9268C52.5559 44.8072 52.4342 44.6912 52.3359 44.5684C51.7717 43.8629 51.6123 43.4702 51.541 43.2207C51.5231 43.158 51.5111 43.1039 51.499 43.0547C51.487 43.006 51.4746 42.9614 51.458 42.9199C51.4237 42.8344 51.3704 42.7651 51.2607 42.6904ZM58.9502 38.6885C58.5822 38.6678 58.1937 38.8717 57.832 39.1582C57.4693 39.4456 57.1282 39.8209 56.8525 40.1504C56.572 40.4858 56.2934 41.1765 56.1504 41.9404C56.0074 42.7051 55.9976 43.5525 56.2637 44.1992C56.4591 44.6743 56.6783 45.0102 56.9746 45.2432C57.2709 45.4761 57.6421 45.603 58.1357 45.6689C58.4798 45.7148 58.8146 45.5632 59.1201 45.3008C59.4258 45.0382 59.7056 44.662 59.9434 44.2529C60.1813 43.8435 60.3779 43.3987 60.5146 42.9971C60.6511 42.5964 60.7294 42.235 60.7295 41.9932C60.7294 41.3286 60.5007 40.5172 60.167 39.8662C60 39.5405 59.8061 39.2532 59.5996 39.0439C59.3937 38.8352 59.1718 38.701 58.9502 38.6885ZM55.9141 38.2852C54.4134 37.8265 53.296 38.2847 52.6221 39.1904C51.95 40.0936 51.7224 41.4363 51.9883 42.7422C52.0896 43.2396 52.3815 43.7019 52.7598 44.0352C53.1378 44.3682 53.6055 44.5753 54.0615 44.5566C54.5196 44.5379 54.8807 44.2223 55.1504 43.8613C55.4205 43.4997 55.6039 43.0858 55.7051 42.8574L55.708 42.8506L55.7178 42.8281C55.7668 42.7043 55.8275 42.4541 55.8867 42.1318C55.9502 41.7867 56.0121 41.3548 56.0547 40.8965C56.1397 39.9817 56.1493 38.955 55.9365 38.3066L55.9307 38.29L55.9141 38.2852Z" fill="#FFF6F0"/>
<defs>
<filter id="filter0_d_74_16" x="0" y="0" width="112" height="112" filterUnits="userSpaceOnUse" color-interpolation-filters="sRGB">
<feFlood flood-opacity="0" result="BackgroundImageFix"/>
<feColorMatrix in="SourceAlpha" type="matrix" values="0 0 0 0 0 0 0 0 0 0 0 0 0 0 0 0 0 0 127 0" result="hardAlpha"/>
<feOffset dy="4"/>
<feGaussianBlur stdDeviation="12"/>
<feComposite in2="hardAlpha" operator="out"/>
<feColorMatrix type="matrix" values="0 0 0 0 0.101961 0 0 0 0 0.101961 0 0 0 0 0.180392 0 0 0 0.36 0"/>
<feBlend mode="normal" in2="BackgroundImageFix" result="effect1_dropShadow_74_16"/>
<feBlend mode="normal" in="SourceGraphic" in2="effect1_dropShadow_74_16" result="shape"/>
</filter>
</defs>
</svg>
