<svg width="102" height="112" viewBox="0 0 102 112" fill="none" xmlns="http://www.w3.org/2000/svg">
<path d="M3.03071 111.921C2.04397 111.921 1.2951 111.656 0.775298 111.119C0.255496 110.581 0 109.833 0 108.846V94.6879C0 93.7011 0.255496 92.9523 0.775298 92.4325C1.2951 91.9127 2.01754 91.6572 2.95142 91.6572C3.8853 91.6572 4.64298 91.9215 5.14516 92.4325C5.64734 92.9523 5.90283 93.7011 5.90283 94.6879V97.2428L5.46232 95.6482C5.99094 94.4236 6.8191 93.4368 7.93799 92.6968C9.05689 91.9567 10.3696 91.5779 11.885 91.5779C13.4003 91.5779 14.6602 91.9391 15.6733 92.6527C16.6865 93.3664 17.4001 94.4764 17.823 95.9654H17.268C17.8495 94.6086 18.7481 93.5426 19.9639 92.7585C21.1709 91.9743 22.5629 91.5779 24.1311 91.5779C25.6994 91.5779 26.8887 91.8774 27.8579 92.4765C28.827 93.0756 29.5494 93.9831 30.034 95.1901C30.5185 96.3971 30.7564 97.9388 30.7564 99.7978V108.855C30.7564 109.841 30.5009 110.599 29.9811 111.128C29.4613 111.656 28.7213 111.929 27.7698 111.929C26.8182 111.929 26.0341 111.665 25.5143 111.128C24.9945 110.59 24.739 109.841 24.739 108.855V100C24.739 98.6965 24.5364 97.745 24.1223 97.1459C23.7082 96.5468 23.0122 96.2473 22.0255 96.2473C20.8802 96.2473 19.9903 96.6437 19.356 97.4455C18.7217 98.2472 18.3957 99.3749 18.3957 100.837V108.855C18.3957 109.841 18.1402 110.599 17.6204 111.128C17.1006 111.656 16.3605 111.929 15.409 111.929C14.4575 111.929 13.7087 111.665 13.1801 111.128C12.6514 110.599 12.3783 109.841 12.3783 108.855V100C12.3783 98.6965 12.1757 97.745 11.7616 97.1459C11.3475 96.5468 10.6515 96.2473 9.66479 96.2473C8.51946 96.2473 7.62963 96.6437 6.9953 97.4455C6.36096 98.2472 6.03499 99.3749 6.03499 100.837V108.855C6.03499 110.899 5.03943 111.929 3.03952 111.929L3.03071 111.921Z" fill="#1A1A2E"/>
<path d="M38.4124 111.876C37.4257 111.876 36.6768 111.586 36.157 111.022C35.6372 110.449 35.3817 109.647 35.3817 108.608V94.9696C35.3817 93.9036 35.6372 93.093 36.157 92.5116C36.6768 91.9389 37.4257 91.657 38.4124 91.657C39.3992 91.657 40.104 91.9477 40.6238 92.5116C41.1436 93.0842 41.3991 93.9036 41.3991 94.9696V108.608C41.3991 109.647 41.1436 110.449 40.6414 111.022C40.1392 111.594 39.3904 111.876 38.4036 111.876H38.4124Z" fill="#1A1A2E"/>
<path d="M49.1784 111.92C48.1917 111.92 47.4428 111.656 46.923 111.119C46.4032 110.581 46.1477 109.832 46.1477 108.846V94.6876C46.1477 93.7009 46.4032 92.952 46.923 92.4322C47.4428 91.9124 48.1652 91.6569 49.0991 91.6569C50.033 91.6569 50.7907 91.9212 51.2929 92.4322C51.795 92.952 52.0505 93.7009 52.0505 94.6876V97.2426L51.61 95.648C52.1386 94.4233 52.9668 93.4366 54.0857 92.6965C55.2046 91.9565 56.5173 91.5776 58.0327 91.5776C59.548 91.5776 60.8079 91.9389 61.821 92.6525C62.8342 93.3661 63.5479 94.4762 63.9707 95.9651H63.4157C63.9972 94.6083 64.8958 93.5423 66.1116 92.7582C67.3186 91.9741 68.7106 91.5776 70.2788 91.5776C71.8471 91.5776 73.0364 91.8772 74.0056 92.4763C74.9747 93.0754 75.6971 93.9828 76.1817 95.1898C76.6662 96.3968 76.9041 97.9386 76.9041 99.7976V108.854C76.9041 109.841 76.6486 110.599 76.1288 111.127C75.609 111.656 74.869 111.929 73.9175 111.929C72.966 111.929 72.1818 111.665 71.662 111.127C71.1422 110.59 70.8867 109.841 70.8867 108.854V100C70.8867 98.6963 70.6841 97.7448 70.27 97.1457C69.856 96.5466 69.1599 96.247 68.1732 96.247C67.0279 96.247 66.138 96.6435 65.5037 97.4452C64.8694 98.247 64.5434 99.3747 64.5434 100.837V108.854C64.5434 109.841 64.2879 110.599 63.7681 111.127C63.2483 111.656 62.5082 111.929 61.5567 111.929C60.6052 111.929 59.8564 111.665 59.3278 111.127C58.7991 110.599 58.526 109.841 58.526 108.854V100C58.526 98.6963 58.3234 97.7448 57.9093 97.1457C57.4952 96.5466 56.7992 96.247 55.8125 96.247C54.6672 96.247 53.7773 96.6435 53.143 97.4452C52.5087 98.247 52.1827 99.3747 52.1827 100.837V108.854C52.1827 110.898 51.1871 111.929 49.1872 111.929L49.1784 111.92Z" fill="#1A1A2E"/>
<path d="M90.9389 112C88.8421 112 87.0096 111.586 85.459 110.766C83.8996 109.938 82.7014 108.758 81.8468 107.216C80.9922 105.674 80.5693 103.85 80.5693 101.754C80.5693 100.185 80.8072 98.7758 81.283 97.5247C81.7587 96.2737 82.4635 95.2077 83.3798 94.3178C84.2961 93.428 85.3973 92.7496 86.666 92.2827C87.9347 91.8157 89.3619 91.5867 90.9301 91.5867C93.027 91.5867 94.8595 92.0008 96.4101 92.8201C97.9695 93.6483 99.1765 94.8112 100.04 96.3266C100.903 97.8419 101.335 99.648 101.335 101.754C101.335 103.348 101.088 104.776 100.595 106.018C100.102 107.269 99.4056 108.344 98.4981 109.251C97.5906 110.159 96.4982 110.837 95.2119 111.304C93.9256 111.771 92.4895 112 90.9213 112H90.9389ZM90.9389 107.489C91.82 107.489 92.5776 107.278 93.212 106.846C93.8463 106.423 94.3573 105.789 94.7273 104.952C95.0974 104.115 95.2824 103.049 95.2824 101.745C95.2824 99.8066 94.8859 98.3705 94.0842 97.4543C93.2825 96.538 92.234 96.0799 90.9301 96.0799C90.0755 96.0799 89.3267 96.2825 88.6747 96.679C88.0228 97.0754 87.5206 97.7009 87.1594 98.5379C86.7982 99.3749 86.6219 100.45 86.6219 101.745C86.6219 103.683 87.0184 105.128 87.8201 106.071C88.6219 107.013 89.6527 107.489 90.9301 107.489H90.9389Z" fill="#1A1A2E"/>
<path d="M38.4125 88.3885C37.2936 88.3885 36.439 88.1242 35.8399 87.6132C35.2408 87.0934 34.9413 86.3533 34.9413 85.4018C34.9413 84.4503 35.2408 83.6662 35.8399 83.1464C36.439 82.6266 37.2936 82.3711 38.4125 82.3711C39.5314 82.3711 40.3772 82.6354 40.9675 83.1464C41.5489 83.6662 41.8485 84.4151 41.8485 85.4018C41.8485 86.3885 41.5577 87.0934 40.9675 87.6132C40.386 88.133 39.5314 88.3885 38.4125 88.3885Z" fill="#FF5C6C"/>
<path d="M32.5274 44.747L9.97327 38.3596L25.1444 32.166L25.3999 32.7827L11.9996 38.2451L32.7036 44.1126L32.5274 44.747Z" fill="#FFCCD6"/>
<path d="M20.8715 54.2265C20.616 54.2265 20.3517 54.2177 20.0962 54.1912C18.1403 54.0238 15.8056 52.6406 13.841 50.491C11.656 48.0946 10.22 45.0639 9.78827 41.9539C9.56802 40.3416 9.77065 38.4122 10.405 36.2096C10.9248 34.3947 11.7441 32.3772 12.7661 30.3773C13.6471 28.6681 14.6691 27.003 15.6382 25.6902C16.0964 25.0735 16.5193 24.5625 16.9069 24.1661C17.3474 23.7168 17.7086 23.4524 18.0258 23.3467C18.7835 23.0912 21.0918 22.3247 22.9419 23.8401C23.5058 24.307 23.8229 24.7475 23.9991 25.3202C24.0696 25.5581 24.1137 25.8136 24.1577 26.0955L24.1753 26.2365C24.2106 26.4567 24.2458 26.6858 24.2987 26.9501C24.5366 28.1571 25.1445 30.2187 27.7258 34.0864C28.1487 34.7207 28.6685 35.3198 29.3117 36.0422L29.391 36.1303C29.9724 36.7823 30.5715 37.4519 31.1002 38.1831C31.9812 39.4077 33.0913 41.346 32.5362 44.0683C32.0428 46.5087 30.4746 49.1254 28.3249 51.0812C26.0783 53.1252 23.4529 54.2177 20.8539 54.2177L20.8715 54.2265ZM20.2988 23.8137C19.5764 23.8137 18.8716 23.9987 18.3077 24.1925C18.2284 24.2189 17.9906 24.3335 17.5413 24.7916C17.1888 25.144 16.7836 25.6374 16.3519 26.2188C15.4092 27.4875 14.4224 29.1086 13.559 30.7825C12.5547 32.7296 11.7618 34.6943 11.2596 36.4563C10.6693 38.5443 10.4667 40.3504 10.6693 41.8393C11.0658 44.7731 12.4313 47.6364 14.4929 49.9007C16.2814 51.8653 18.4575 53.1693 20.1667 53.319C22.7745 53.5393 25.4616 52.5173 27.7435 50.4381C29.7522 48.6056 31.2235 46.1651 31.6816 43.9009C32.0517 42.0596 31.6552 40.4561 30.3953 38.7029C29.8932 38.0069 29.3117 37.3549 28.7478 36.7206L28.6685 36.6325C28.0254 35.9101 27.4615 35.2581 27.0034 34.5797C24.3339 30.5799 23.6908 28.4038 23.4441 27.1263C23.3912 26.8444 23.356 26.5977 23.3207 26.3774L23.3031 26.2365C23.2679 25.9986 23.2326 25.7871 23.171 25.5845C23.0652 25.2409 22.8979 24.9326 22.3957 24.5273C21.7437 23.9899 21.0125 23.8137 20.2988 23.8137Z" fill="#FF5C6C"/>
<path d="M59.5572 75.2919C58.1123 75.2919 56.5882 75.1069 55.0288 74.64C53.7072 74.2435 52.7293 73.8471 52.0245 73.5387L51.3285 73.2304C50.8263 73.0101 50.377 72.8075 49.8924 72.6313C48.5797 72.1467 47.0732 71.8472 44.016 71.9705C41.5051 72.0762 39.1704 72.7282 36.9238 73.3537C36.1221 73.5739 35.3204 73.803 34.5186 73.9968C31.5584 74.7281 28.3162 75.195 24.6776 73.6356C22.4751 72.6929 20.9333 70.6137 20.4311 67.9266C19.9466 65.3276 20.5809 62.5524 22.1315 60.5172C23.6997 58.4556 25.8934 57.1782 28.0079 55.9447L28.1753 55.8478C30.184 54.6761 32.2632 53.4691 33.5407 51.5308C34.6243 49.9009 35.2763 48.4913 35.9018 47.1257L36.2895 46.2888C37.0207 44.747 37.8753 43.0818 39.6109 41.1788C41.2849 39.3375 44.2451 38.2186 47.5313 38.1658C50.932 38.1393 54.183 39.2318 56.4032 41.2141C56.9758 41.7251 57.5133 42.5973 58.1388 44.0422C58.5088 44.8967 58.87 45.8571 59.2577 46.879L59.7246 48.1125C60.2356 49.4428 60.8611 50.9846 61.5924 52.3502C62.3589 53.795 63.1342 54.8435 63.9623 55.5571C65.4777 56.8698 66.8961 57.4513 68.2793 58.0151C68.5877 58.1385 68.896 58.2618 69.1868 58.394C69.918 58.7111 70.755 59.1252 71.5215 59.7948C72.288 60.4732 72.887 61.3454 73.354 62.4643C74.2438 64.5964 74.1205 66.9487 73.0016 69.0984C72.1029 70.834 70.614 72.2965 69.1251 72.922L68.7991 73.063C66.9137 73.8559 63.5306 75.2831 59.5396 75.2831L59.5572 75.2919ZM45.3376 71.0542C47.6723 71.0542 49.0026 71.3538 50.2008 71.7943C50.6942 71.9793 51.1699 72.1907 51.6897 72.4198L52.3769 72.7194C53.0553 73.0101 54.0068 73.3977 55.2843 73.7854C60.8699 75.4593 66.0063 73.292 68.4819 72.2524L68.8079 72.1115C70.0942 71.574 71.4422 70.2349 72.2439 68.6931C72.9487 67.3451 73.5742 65.2307 72.5611 62.8079C72.147 61.8123 71.6272 61.0458 70.9576 60.4556C70.288 59.8653 69.5216 59.4864 68.8608 59.2045C68.5701 59.0812 68.2705 58.9578 67.971 58.8345C66.5966 58.2706 65.0372 57.6363 63.4161 56.2355C62.5086 55.4514 61.6629 54.3149 60.8435 52.7819C60.0946 51.3722 59.4603 49.7952 58.9317 48.4473L58.4559 47.205C58.0683 46.1918 57.7071 45.2403 57.3459 44.4034C56.9934 43.584 56.4472 42.4299 55.8305 41.8837C53.7777 40.0511 50.7734 39.0203 47.5577 39.0644C44.5094 39.1084 41.787 40.1216 40.2717 41.7867C38.6154 43.6105 37.796 45.2051 37.1 46.6852L36.7124 47.5134C36.0692 48.9054 35.3996 50.3503 34.2808 52.033C32.8887 54.1386 30.6245 55.4602 28.6246 56.6231L28.4572 56.72C26.4132 57.9094 24.2988 59.1428 22.8363 61.0635C21.4355 62.9048 20.8628 65.4157 21.3033 67.7768C21.7438 70.1732 23.1006 72.0145 25.03 72.8339C28.422 74.2876 31.4967 73.8383 34.3072 73.1511C35.1001 72.9572 35.893 72.737 36.6859 72.5079C38.9854 71.8648 41.3641 71.204 43.9808 71.0895C44.4653 71.0719 44.9147 71.063 45.3287 71.063L45.3376 71.0542Z" fill="#FF5C6C"/>
<path d="M46.1479 71.4243L33.6375 51.9538L34.1925 51.6014L46.1215 70.1645L59.0461 48.1125L59.6187 48.4473L46.1479 71.4243Z" fill="#FFCCD6"/>
<path d="M86.3313 54.0949L65.4335 44.2186L65.7154 43.6195L85.6265 53.0288L84.5957 29.6466L85.2564 29.6113L86.3313 54.0949Z" fill="#FFCCD6"/>
<path d="M76.7635 58.7642C75.7768 58.7642 74.8253 58.6233 73.9266 58.3325C68.2969 56.0155 65.0812 53.064 64.3411 49.5312C63.6892 46.4212 65.1517 43.549 66.7375 41.8927C68.385 40.0866 70.658 37.9546 73.1249 35.893C75.627 33.8138 78.1027 31.9989 80.1114 30.7919C81.2127 30.1311 82.1642 29.6465 82.9395 29.3646C83.38 29.206 83.7588 29.1091 84.0936 29.0739C84.5077 29.0298 84.8513 29.0739 85.1332 29.2236C90.7365 32.0165 93.0183 39.9809 90.4546 47.7603C89.2123 51.5134 86.7278 54.6939 83.4505 56.7203C81.2743 58.0594 78.9572 58.7554 76.7811 58.7554L76.7635 58.7642ZM84.3579 29.9549C84.2962 29.9549 84.2346 29.9549 84.1729 29.9637C83.9174 29.9901 83.6002 30.0694 83.2302 30.2016C82.5078 30.4571 81.6091 30.9152 80.5607 31.5495C78.596 32.7389 76.1556 34.5186 73.6887 36.5713C71.2483 38.6065 69.0105 40.7033 67.3806 42.4918C66.0063 43.9191 64.6231 46.5621 65.2045 49.3461C65.8829 52.5707 68.9224 55.3106 74.235 57.4956C76.8428 58.3325 80.0409 57.7775 82.9747 55.9626C86.0759 54.0508 88.437 51.0377 89.6088 47.4784C92.0404 40.1219 89.9436 32.6068 84.7279 30.0078C84.631 29.9637 84.5077 29.9373 84.3579 29.9373V29.9549Z" fill="#FF5C6C"/>
<path d="M46.148 33.1174L26.8536 21.3734L27.1972 20.8007L45.1789 31.7606L38.8619 2.35214L39.5139 2.21118L46.148 33.1174Z" fill="#FFCCD6"/>
<path d="M39.2495 37.091C37.1086 37.091 34.7827 36.2628 32.7475 34.7475C30.4304 33.0207 28.6684 30.5626 27.9195 27.9901C25.3382 19.1094 26.6949 6.9425 39.0028 1.86782C40.7208 1.01323 42.3506 1.05729 43.8572 1.99998C47.7865 4.45802 49.6719 12.5017 49.6279 16.3077C49.6014 18.5808 49.4781 20.9419 49.2667 22.9771C49.0905 24.7391 48.8702 26.1047 48.6499 26.8271L48.6059 26.9681C48.1478 28.2632 47.3372 30.5891 46.0333 32.6683C44.377 35.2937 42.4211 36.7562 40.2186 37.0293C39.9014 37.0646 39.5754 37.091 39.2495 37.091ZM41.3903 2.14975C40.7472 2.14975 40.0864 2.32595 39.3816 2.66955H39.3552C27.5671 7.53278 26.2897 19.2151 28.7741 27.7522C29.4701 30.1398 31.1088 32.4304 33.2761 34.0427C35.4434 35.6549 37.9367 36.4214 40.1129 36.1571C42.0423 35.9192 43.7867 34.5889 45.2933 32.2013C46.5443 30.2102 47.3372 27.946 47.7689 26.7302L47.8218 26.5716C48.0156 25.9285 48.2271 24.5893 48.4033 22.9066C48.6059 20.9067 48.7292 18.5632 48.7557 16.3166C48.7997 12.7837 46.9936 5.01307 43.3902 2.76646C42.7471 2.3612 42.0775 2.15856 41.3903 2.15856V2.14975Z" fill="#FF5C6C"/>
<path d="M60.5437 38.1129L57.8302 8.95996L76.3845 22.1048L75.9968 22.6422L58.6231 10.3255L61.1957 38.0512L60.5437 38.1129Z" fill="#FFCCD6"/>
<path d="M61.328 39.0825C60.7465 39.0825 60.1915 38.9944 59.654 38.8182C57.011 37.9548 55.2489 36.9152 53.9362 35.4263C52.6235 33.9462 51.7777 32.0344 51.1874 29.2415C50.2624 24.8629 51.7689 19.938 52.7468 17.3918C54.1829 13.6651 56.3062 10.282 58.1475 8.75783C60.4029 6.89006 62.3764 5.53329 64.156 4.5906C66.6934 3.25145 68.8695 2.78451 70.6227 3.21621C71.7945 3.49814 72.8782 4.37916 73.8649 5.81522C74.7107 7.05746 75.4683 8.7314 76.0498 10.652C77.204 14.4845 77.5387 18.916 76.9308 22.211C76.693 23.4797 75.9529 25.277 74.8428 27.2504C73.6887 29.312 72.2174 31.4089 70.6932 33.1709C68.9312 35.2237 67.0898 36.8271 65.3895 37.8139C63.9534 38.642 62.5966 39.0649 61.328 39.0649V39.0825ZM69.2836 3.94746C67.9532 3.94746 66.3762 4.42321 64.5701 5.37471C62.8345 6.29097 60.9227 7.62131 58.7113 9.44502C56.9757 10.8723 54.9582 14.1232 53.575 17.709C51.9451 21.9467 51.3989 25.973 52.0508 29.0565C52.6059 31.6908 53.3988 33.4793 54.597 34.836C55.804 36.2016 57.4427 37.1619 59.9272 37.9725C61.3896 38.4482 63.0812 38.1398 64.949 37.0562C66.57 36.1135 68.3321 34.5717 70.0325 32.5982C71.5126 30.8802 72.9486 28.8275 74.0763 26.8187C75.1247 24.951 75.856 23.2066 76.0674 22.0436C76.6489 18.8807 76.3229 14.6078 75.204 10.8987C74.649 9.06618 73.9354 7.47154 73.1336 6.29978C72.2879 5.05754 71.354 4.28224 70.4113 4.06199C70.0589 3.97389 69.68 3.92984 69.2748 3.92984L69.2836 3.94746Z" fill="#FF5C6C"/>
<path d="M46.1215 73.8383C45.0052 73.8383 44.1505 73.574 43.5487 73.0542C42.9469 72.5344 42.6504 71.7855 42.6504 70.8164C42.6504 69.8473 42.9469 69.0632 43.5487 68.5434C44.1505 68.0236 45.0052 67.7593 46.1215 67.7593C47.2379 67.7593 48.0926 68.0236 48.6769 68.5434C49.2613 69.0632 49.5578 69.8297 49.5578 70.8164C49.5578 71.8032 49.2613 72.5256 48.6769 73.0542C48.0926 73.574 47.2379 73.8383 46.1215 73.8383Z" fill="#FF5C6C"/>
<path d="M34.3599 54.5791C33.5142 54.5791 32.8622 54.3852 32.4129 53.9888C31.9636 53.5923 31.7345 53.0373 31.7345 52.3148C31.7345 51.5924 31.9636 51.0021 32.4129 50.6057C32.8622 50.2092 33.5142 50.0154 34.3599 50.0154C35.2057 50.0154 35.8489 50.2092 36.2894 50.6057C36.7299 51.0021 36.9501 51.566 36.9501 52.3148C36.9501 53.0637 36.7299 53.6011 36.2894 53.9888C35.8489 54.3764 35.2057 54.5791 34.3599 54.5791Z" fill="#FF5C6C"/>
<path d="M59.2664 50.4563C58.4207 50.4563 57.7687 50.2624 57.3194 49.866C56.8701 49.4695 56.641 48.9145 56.641 48.192C56.641 47.4696 56.8701 46.8793 57.3194 46.4829C57.7687 46.0864 58.4207 45.8926 59.2664 45.8926C60.1122 45.8926 60.7554 46.0864 61.1959 46.4829C61.6364 46.8793 61.8566 47.4432 61.8566 48.192C61.8566 48.9409 61.6364 49.4783 61.1959 49.866C60.7554 50.2536 60.1122 50.4563 59.2664 50.4563Z" fill="#FF5C6C"/>
<path d="M25.2855 34.4123C24.4397 34.4123 23.7877 34.2185 23.3384 33.822C22.8891 33.4256 22.66 32.8705 22.66 32.1481C22.66 31.4257 22.8891 30.8354 23.3384 30.4389C23.7877 30.0425 24.4397 29.8486 25.2855 29.8486C26.1313 29.8486 26.7744 30.0425 27.2149 30.4389C27.6554 30.8354 27.8757 31.3992 27.8757 32.1481C27.8757 32.897 27.6554 33.4344 27.2149 33.822C26.7744 34.2097 26.1313 34.4123 25.2855 34.4123Z" fill="#FF5C6C"/>
<path d="M31.9989 46.7116C31.1531 46.7116 30.5011 46.5178 30.0518 46.1213C29.6025 45.7249 29.3734 45.1698 29.3734 44.4474C29.3734 43.725 29.6025 43.1347 30.0518 42.7382C30.5011 42.3418 31.1531 42.1479 31.9989 42.1479C32.8446 42.1479 33.4878 42.3418 33.9283 42.7382C34.3688 43.1347 34.5891 43.6985 34.5891 44.4474C34.5891 45.1963 34.3688 45.7337 33.9283 46.1213C33.4878 46.509 32.8446 46.7116 31.9989 46.7116Z" fill="#FF5C6C"/>
<path d="M26.7744 24.4306C25.9286 24.4306 25.2766 24.2368 24.8273 23.8403C24.378 23.4439 24.1489 22.8888 24.1489 22.1664C24.1489 21.444 24.378 20.8537 24.8273 20.4572C25.2766 20.0608 25.9286 19.8669 26.7744 19.8669C27.6201 19.8669 28.2633 20.0608 28.7038 20.4572C29.1443 20.8537 29.3646 21.4175 29.3646 22.1664C29.3646 22.9153 29.1443 23.4527 28.7038 23.8403C28.2633 24.228 27.6201 24.4306 26.7744 24.4306Z" fill="#FF5C6C"/>
<path d="M39.2056 4.56368C38.3599 4.56368 37.7079 4.36986 37.2586 3.9734C36.8093 3.57694 36.5802 3.0219 36.5802 2.29946C36.5802 1.57703 36.8093 0.986742 37.2586 0.590283C37.7079 0.193824 38.3599 0 39.2056 0C40.0514 0 40.6946 0.193824 41.1351 0.590283C41.5756 0.986742 41.7958 1.5506 41.7958 2.29946C41.7958 3.04833 41.5756 3.58575 41.1351 3.9734C40.6946 4.36105 40.0514 4.56368 39.2056 4.56368Z" fill="#FF5C6C"/>
<path d="M60.9842 40.9323C60.1384 40.9323 59.4865 40.7385 59.0371 40.3421C58.5878 39.9456 58.3588 39.3906 58.3588 38.6681C58.3588 37.9457 58.5878 37.3554 59.0371 36.9589C59.4865 36.5625 60.1384 36.3687 60.9842 36.3687C61.83 36.3687 62.4731 36.5625 62.9136 36.9589C63.3541 37.3554 63.5744 37.9192 63.5744 38.6681C63.5744 39.417 63.3541 39.9544 62.9136 40.3421C62.4731 40.7297 61.83 40.9323 60.9842 40.9323Z" fill="#FF5C6C"/>
<path d="M76.7369 25.2241C75.8911 25.2241 75.2392 25.0303 74.7898 24.6338C74.3405 24.2373 74.1115 23.6823 74.1115 22.9599C74.1115 22.2374 74.3405 21.6471 74.7898 21.2507C75.2392 20.8542 75.8911 20.6604 76.7369 20.6604C77.5827 20.6604 78.2258 20.8542 78.6663 21.2507C79.1068 21.6471 79.3271 22.211 79.3271 22.9599C79.3271 23.7087 79.1068 24.2462 78.6663 24.6338C78.2258 25.0214 77.5827 25.2241 76.7369 25.2241Z" fill="#FF5C6C"/>
<path d="M85.468 32.4831C84.6222 32.4831 83.9702 32.2893 83.5209 31.8928C83.0716 31.4964 82.8425 30.9413 82.8425 30.2189C82.8425 29.4965 83.0716 28.9062 83.5209 28.5097C83.9702 28.1133 84.6222 27.9194 85.468 27.9194C86.3138 27.9194 86.9569 28.1133 87.3974 28.5097C87.8379 28.9062 88.0582 29.47 88.0582 30.2189C88.0582 30.9678 87.8379 31.5052 87.3974 31.8928C86.9569 32.2805 86.3138 32.4831 85.468 32.4831Z" fill="#FF5C6C"/>
<path d="M65.5832 46.2009C64.7374 46.2009 64.0855 46.0071 63.6362 45.6106C63.1868 45.2142 62.9578 44.6591 62.9578 43.9367C62.9578 43.2142 63.1868 42.624 63.6362 42.2275C64.0855 41.831 64.7374 41.6372 65.5832 41.6372C66.429 41.6372 67.0721 41.831 67.5126 42.2275C67.9532 42.624 68.1734 43.1878 68.1734 43.9367C68.1734 44.6855 67.9532 45.223 67.5126 45.6106C67.0721 45.9983 66.429 46.2009 65.5832 46.2009Z" fill="#FF5C6C"/>
<path d="M86.5339 57.2844C85.4175 57.2844 84.5628 57.0201 83.9611 56.5003C83.3593 55.9805 83.0627 55.2316 83.0627 54.2625C83.0627 53.2933 83.3593 52.5092 83.9611 51.9894C84.5628 51.4696 85.4175 51.2053 86.5339 51.2053C87.6502 51.2053 88.5049 51.4696 89.0893 51.9894C89.6736 52.5092 89.9701 53.2757 89.9701 54.2625C89.9701 55.2492 89.6736 55.9716 89.0893 56.5003C88.5049 57.0201 87.6502 57.2844 86.5339 57.2844Z" fill="#FF5C6C"/>
<path d="M58.2091 12.6867C57.0927 12.6867 56.238 12.4224 55.6362 11.9026C55.0344 11.3828 54.7379 10.6339 54.7379 9.66481C54.7379 8.69568 55.0344 7.91158 55.6362 7.39177C56.238 6.87197 57.0927 6.60767 58.2091 6.60767C59.3254 6.60767 60.1801 6.87197 60.7644 7.39177C61.3488 7.91158 61.6453 8.67806 61.6453 9.66481C61.6453 10.6515 61.3488 11.374 60.7644 11.9026C60.1801 12.4224 59.3254 12.6867 58.2091 12.6867Z" fill="#FF5C6C"/>
<path d="M45.6457 35.5136C44.5294 35.5136 43.6747 35.2493 43.0729 34.7295C42.4711 34.2097 42.1746 33.4608 42.1746 32.4917C42.1746 31.5226 42.4711 30.7385 43.0729 30.2187C43.6747 29.6989 44.5294 29.4346 45.6457 29.4346C46.7621 29.4346 47.6168 29.6989 48.2011 30.2187C48.7854 30.7385 49.082 31.505 49.082 32.4917C49.082 33.4785 48.7854 34.2009 48.2011 34.7295C47.6168 35.2493 46.7621 35.5136 45.6457 35.5136Z" fill="#FF5C6C"/>
<path d="M10.4313 41.1264C9.315 41.1264 8.4603 40.8621 7.85852 40.3423C7.25674 39.8225 6.96021 39.0736 6.96021 38.1045C6.96021 37.1354 7.25674 36.3513 7.85852 35.8315C8.4603 35.3117 9.315 35.0474 10.4313 35.0474C11.5477 35.0474 12.4024 35.3117 12.9867 35.8315C13.5711 36.3513 13.8676 37.1178 13.8676 38.1045C13.8676 39.0912 13.5711 39.8137 12.9867 40.3423C12.4024 40.8621 11.5477 41.1264 10.4313 41.1264Z" fill="#FF5C6C"/>
</svg>
