<svg width="76" height="103" viewBox="0 0 76 103" fill="none" xmlns="http://www.w3.org/2000/svg">
<path d="M38 98C46.2846 98 52.9996 99.1185 53 100.498C53 101.881 46.2848 103 38 103C29.7153 103 23 101.881 23 100.498C23.0004 99.1185 29.7156 98 38 98ZM38 0C58.9862 4.70222e-07 76 16.837 76 37.6045C75.5175 49.0523 69.9644 59.707 60.8174 66.7305L51.9111 73.5732C48.2908 76.3561 45.567 80.1265 44.0811 84.4219L43.0312 87.4434C42.2946 89.5717 40.2712 91 38 91C35.7255 91 33.7054 89.5717 32.9688 87.4434L31.9189 84.4219C30.433 80.1264 27.7086 76.3561 24.085 73.5732L15.1787 66.7305C6.03497 59.707 0.482408 49.0522 0 37.6045C1.0159e-05 16.837 17.0138 0 38 0ZM38.2383 34.8154C36.8117 34.776 35.4298 35.1879 34.6172 36.0107C33.8183 36.8198 33.3903 37.5452 32.9971 38.2949C32.604 39.0444 32.2479 39.8124 31.5889 40.7227C30.9388 41.6205 29.9504 42.1569 28.918 42.7021C27.8922 43.2438 26.8233 43.794 26.0557 44.7236C25.2839 45.6584 25.0024 46.8891 25.1611 48.0039C25.3198 49.1189 25.9212 50.1275 26.9238 50.6055C28.4991 51.3568 29.9459 51.2444 31.3994 50.9492C32.8579 50.653 34.3092 50.1787 35.9346 50.1787C37.3947 50.1787 38.1174 50.3513 38.7549 50.6182C39.0773 50.7531 39.3763 50.9116 39.7441 51.0889C40.1105 51.2653 40.5385 51.457 41.1084 51.6543C43.8835 52.6144 46.451 51.565 47.6221 51.1309C48.2299 50.9055 48.9435 50.3106 49.4062 49.5049C49.8705 48.6964 50.0869 47.6671 49.6855 46.5771C49.4863 46.0361 49.23 45.6562 48.9277 45.3662C48.6261 45.0768 48.2821 44.8792 47.9141 44.7002C47.1754 44.3411 46.3386 44.0511 45.4697 43.2354C45.0404 42.8322 44.6834 42.2673 44.375 41.626C44.0668 40.9852 43.8089 40.2727 43.5732 39.5781C43.3383 38.8861 43.1252 38.208 42.9082 37.6445C42.6922 37.0839 42.466 36.6179 42.1992 36.3584C41.16 35.348 39.6667 34.855 38.2383 34.8154ZM53.7471 30.1582C53.6327 30.1132 53.4957 30.1124 53.3457 30.1416C53.1947 30.1709 53.0233 30.232 52.8369 30.3184C52.464 30.4915 52.0188 30.7724 51.5322 31.1279C50.5584 31.8394 49.4064 32.8593 48.3105 33.9482C47.2143 35.0375 46.1713 36.1983 45.416 37.1914C45.0386 37.6878 44.7316 38.1449 44.5254 38.5312C44.4225 38.7242 44.3434 38.9021 44.2939 39.0596C44.2449 39.2157 44.2225 39.3593 44.2393 39.4814C44.5811 41.9644 46.7313 44.0469 49.5898 44.6914C51.0354 45.0171 52.6746 44.5502 54.0645 43.5137C55.4554 42.4761 56.6049 40.8626 57.0713 38.8799C58.0002 34.9303 56.4842 31.2338 53.7471 30.1582ZM26.585 27.5986C25.7605 27.0397 24.8293 27.3728 24.3262 27.5908C24.2004 27.6455 24.0494 27.7894 23.8877 27.9863C23.7229 28.1871 23.5371 28.4552 23.3418 28.7744C22.9509 29.4131 22.5184 30.2621 22.1357 31.2002C21.7533 32.1383 21.4193 33.1679 21.2275 34.167C21.0359 35.1651 20.9851 36.1395 21.1729 36.9639C21.5451 38.5984 22.4573 39.9644 23.498 40.9209C24.5363 41.8751 25.7139 42.4328 26.623 42.4297C28.1372 42.4248 29.4581 41.6476 30.4297 40.5918C31.4003 39.5368 32.0308 38.1946 32.1592 37.041C32.2887 35.8757 31.8396 35.0422 31.2363 34.3438C30.9358 33.9959 30.5953 33.6792 30.2686 33.3721C29.9403 33.0634 29.6257 32.7643 29.3711 32.4473C27.9087 30.6257 27.4962 29.613 27.3115 28.9688C27.2649 28.8064 27.2325 28.6672 27.2012 28.54C27.17 28.414 27.1398 28.2977 27.0967 28.1904C27.0078 27.9697 26.869 27.7913 26.585 27.5986ZM46.5088 17.2666C45.5552 17.2129 44.5487 17.7406 43.6113 18.4805C42.6714 19.2224 41.7864 20.1893 41.0723 21.04C40.3452 21.906 39.6234 23.6904 39.2529 25.6631C38.8823 27.6371 38.8585 29.8235 39.5479 31.4932C40.0542 32.7195 40.622 33.5861 41.3896 34.1875C42.1573 34.7888 43.1167 35.1189 44.3955 35.2891C45.2872 35.4078 46.1544 35.0137 46.9463 34.3359C47.7386 33.6579 48.4659 32.6883 49.082 31.6318C49.6985 30.575 50.2062 29.4273 50.5605 28.3906C50.9142 27.3561 51.117 26.4233 51.1172 25.7988C51.1171 24.0831 50.5248 21.9885 49.6602 20.3076C49.2275 19.4668 48.7254 18.7247 48.1904 18.1846C47.6571 17.6458 47.0829 17.2991 46.5088 17.2666ZM38.6416 16.2246C34.7533 15.0404 31.8574 16.2243 30.1113 18.5625C28.3699 20.8941 27.7808 24.361 28.4697 27.7324C28.7323 29.0165 29.4878 30.2099 30.4678 31.0703C31.4471 31.9302 32.6584 32.4639 33.8398 32.416C35.0269 32.368 35.9632 31.5541 36.6621 30.6221C37.3623 29.6883 37.8374 28.6188 38.0996 28.0293L38.1074 28.0117L38.1328 27.9531C38.2598 27.6334 38.418 26.989 38.5713 26.1572C38.7357 25.2662 38.8955 24.1502 39.0059 22.9668C39.2261 20.6046 39.2499 17.954 38.6982 16.2803L38.6836 16.2373L38.6416 16.2246Z" fill="#FF5C6C"/>
</svg>
