<svg width="160" height="160" viewBox="0 0 160 160" fill="none" xmlns="http://www.w3.org/2000/svg">
<g filter="url(#filter0_d_74_16)">
<rect x="24" y="20" width="112" height="112" rx="12" fill="#FF5C6C"/>
</g>
<path d="M79.3135 107.931C84.9835 107.931 89.5791 108.615 89.5791 109.459C89.5778 110.305 84.9827 110.989 79.3135 110.989C73.6445 110.989 69.0492 110.305 69.0479 109.459C69.0479 108.615 73.6437 107.931 79.3135 107.931ZM79.417 41C93.5918 41.0002 105.083 52.4135 105.083 66.4912C104.757 74.2514 101.006 81.4744 94.8281 86.2354L88.8135 90.873C86.3681 92.7595 84.5271 95.3158 83.5234 98.2275L82.8154 100.275C82.318 101.718 80.951 102.686 79.417 102.687C77.8806 102.687 76.516 101.718 76.0186 100.275L75.3096 98.2275C74.3059 95.3158 72.4661 92.7595 70.0186 90.873L64.0029 86.2354C57.8268 81.4744 54.0759 74.2514 53.75 66.4912C53.75 52.4134 65.2421 41 79.417 41ZM79.5781 64.6006C78.6145 64.5738 77.6808 64.8533 77.1318 65.4111C76.5922 65.9596 76.3027 66.4517 76.0371 66.96C75.7717 67.4678 75.5309 67.9877 75.0859 68.6045C74.6468 69.2131 73.9796 69.5767 73.2822 69.9463C72.5895 70.3134 71.8681 70.6865 71.3496 71.3164C70.8281 71.9502 70.6378 72.7852 70.7451 73.541C70.8523 74.2968 71.2584 74.9807 71.9355 75.3047C72.9994 75.8138 73.9764 75.7372 74.958 75.5371C75.9432 75.3363 76.9235 75.0146 78.0215 75.0146C79.0078 75.0147 79.4962 75.1315 79.9268 75.3125C80.1445 75.404 80.3463 75.5117 80.5947 75.6318C80.8422 75.7514 81.1317 75.8809 81.5166 76.0146C83.391 76.6654 85.1251 75.9544 85.916 75.6602C86.3265 75.5074 86.8086 75.1047 87.1211 74.5586C87.4347 74.0106 87.5806 73.313 87.3096 72.5742C87.175 72.2071 87.0022 71.9486 86.7979 71.752C86.5941 71.5558 86.3609 71.4231 86.1123 71.3018C85.6135 71.0584 85.0486 70.8614 84.4619 70.3086C84.1719 70.0353 83.9309 69.6516 83.7227 69.2168C83.5146 68.7825 83.3408 68.2998 83.1816 67.8291C83.0229 67.3598 82.8781 66.8997 82.7314 66.5176C82.5856 66.1377 82.433 65.8224 82.2529 65.6465C81.5511 64.9616 80.5429 64.6274 79.5781 64.6006ZM90.0527 61.4434C89.9755 61.4129 89.8825 61.4128 89.7812 61.4326C89.6795 61.4525 89.5641 61.4934 89.4385 61.5518C89.1866 61.6691 88.8854 61.8595 88.5566 62.1006C87.8989 62.5829 87.1211 63.2746 86.3809 64.0127C85.6405 64.751 84.9359 65.5377 84.4258 66.2109C84.1708 66.5475 83.9635 66.8572 83.8242 67.1191C83.7547 67.25 83.7014 67.3707 83.668 67.4775C83.6348 67.5834 83.6195 67.6809 83.6309 67.7637C83.8618 69.4467 85.3144 70.8581 87.2451 71.2949C88.2214 71.5156 89.3279 71.1996 90.2666 70.4971C91.2062 69.7938 91.9828 68.6996 92.2979 67.3555C92.9252 64.6782 91.9015 62.1725 90.0527 61.4434ZM71.7061 59.708C71.1492 59.3295 70.5203 59.5554 70.1807 59.7031C70.0957 59.7402 69.994 59.8382 69.8848 59.9717C69.7735 60.1078 69.6475 60.2896 69.5156 60.5059C69.2517 60.9388 68.9596 61.5146 68.7012 62.1504C68.4429 62.7863 68.2174 63.484 68.0879 64.1611C67.9585 64.8376 67.9241 65.4979 68.0508 66.0566C68.3022 67.1647 68.919 68.0908 69.6221 68.7393C70.3234 69.3861 71.1184 69.7638 71.7324 69.7617C72.7551 69.7584 73.6475 69.2323 74.3037 68.5166C74.9593 67.8015 75.3849 66.8913 75.4717 66.1094C75.5591 65.3196 75.256 64.7547 74.8486 64.2812C74.6456 64.0454 74.4151 63.8303 74.1943 63.6221C73.9726 63.4128 73.7608 63.21 73.5889 62.9951C72.6009 61.7601 72.322 61.0735 72.1973 60.6367C72.1659 60.5269 72.1442 60.4328 72.123 60.3467C72.102 60.2614 72.0808 60.183 72.0518 60.1104C71.9917 59.9607 71.898 59.8387 71.7061 59.708ZM85.1631 52.7041C84.5191 52.6679 83.84 53.0259 83.207 53.5273C82.5721 54.0303 81.9736 54.6859 81.4912 55.2627C81.0002 55.8498 80.5129 57.0594 80.2627 58.3965C80.0124 59.7346 79.9963 61.2168 80.4619 62.3486C80.8039 63.1799 81.1876 63.7671 81.7061 64.1748C82.2245 64.5824 82.8726 64.8056 83.7363 64.9209C84.3386 65.0014 84.9241 64.7348 85.459 64.2754C85.9942 63.8158 86.4852 63.1585 86.9014 62.4424C87.3178 61.7259 87.6611 60.9479 87.9004 60.2451C88.1393 59.5438 88.2763 58.9116 88.2764 58.4883C88.2763 57.3252 87.877 55.905 87.293 54.7656C87.0008 54.1958 86.661 53.6933 86.2998 53.3271C85.9395 52.9618 85.551 52.726 85.1631 52.7041ZM79.8506 51.998C77.2241 51.1951 75.2673 51.9979 74.0879 53.583C72.9118 55.1635 72.5143 57.5136 72.9795 59.7988C73.1568 60.6693 73.6672 61.4783 74.3291 62.0615C74.9907 62.6445 75.8093 63.0062 76.6074 62.9736C77.409 62.9409 78.0407 62.3895 78.5127 61.7578C78.9857 61.1247 79.3073 60.3996 79.4844 60L79.4893 59.9883L79.5059 59.9482C79.5916 59.7315 79.6992 59.2951 79.8027 58.7314C79.9138 58.1274 80.0221 57.3706 80.0967 56.5684C80.2454 54.9672 80.2603 53.1707 79.8877 52.0361L79.8789 52.0068L79.8506 51.998Z" fill="#FFF6F0"/>
<defs>
<filter id="filter0_d_74_16" x="0" y="0" width="160" height="160" filterUnits="userSpaceOnUse" color-interpolation-filters="sRGB">
<feFlood flood-opacity="0" result="BackgroundImageFix"/>
<feColorMatrix in="SourceAlpha" type="matrix" values="0 0 0 0 0 0 0 0 0 0 0 0 0 0 0 0 0 0 127 0" result="hardAlpha"/>
<feOffset dy="4"/>
<feGaussianBlur stdDeviation="12"/>
<feComposite in2="hardAlpha" operator="out"/>
<feColorMatrix type="matrix" values="0 0 0 0 0.101961 0 0 0 0 0.101961 0 0 0 0 0.180392 0 0 0 0.36 0"/>
<feBlend mode="normal" in2="BackgroundImageFix" result="effect1_dropShadow_74_16"/>
<feBlend mode="normal" in="SourceGraphic" in2="effect1_dropShadow_74_16" result="shape"/>
</filter>
</defs>
</svg>
