<svg width="271" height="241" viewBox="0 0 271 241" fill="none" xmlns="http://www.w3.org/2000/svg">
<g clip-path="url(#clip0_153_2105)">
<rect width="271" height="241" fill="#FFF6F0"/>
<path d="M78 218.5L-9.5 184L62 165.5L114 178H148L176.5 205L128.5 215L78 218.5Z" stroke="#3ECFB2"/>
<path d="M249.5 74.5L280.5 100.5L238 118" stroke="#F0EBE8"/>
<path d="M135.5 117L123.5 80.5L161 64L169.5 93L178.5 115.5L203 91L239 64L263 50.5L273 56.5L250 75" stroke="#F0EBE8"/>
<path d="M191.5 150L114.5 176" stroke="#F0EBE8"/>
<path d="M109 50L135.5 45L133 56L160.5 65L191 57M217 43L187 23.5L160.5 65M160.5 65L149 35L135.5 44.5L160.5 65ZM191 57L203 90L217 43M191 57L187 23.5M191 57L217 43M245.5 44L239 63L191 57M217 43L239 63M217 43L245.5 44M217 43L224.5 22.5L245.5 44M245.5 44L263.5 50.5L255.5 36L245.5 44ZM-13.5 73L37.5 56L46 53.5V44L-11 53.5L37.5 32.5L59 21.5L95.5 22.5L109 50L132.5 56" stroke="#F0EBE8"/>
<path d="M38 56L87.5 87.5L68.5 51M68.5 51L75 46.5M75 46.5L58.5 23.5C57.7 25.5 49.8333 38.3333 46 44.5L68.5 51M75 46.5L92 44.5L109 49.5L119 73.5M46 44.5L96 22" stroke="#F0EBE8"/>
<path d="M114 177.5L98.5 139.5L60 165.5M60 165.5L45.5 123L-9 160.5L60 165.5Z" stroke="#9B8F8A"/>
<path d="M190.5 149L178 114.5L168.5 93.5L161 65" stroke="#F0EBE8"/>
<path d="M178 115.5H218L238 117.5" stroke="#A7E0D5"/>
<path d="M148 178.5L178.5 115.5" stroke="#F0EBE8"/>
<path d="M191.5 150L238 117L250 74" stroke="#3ECFB2"/>
<path d="M176 202.5L135 117L113 177.5" stroke="#B7E0D9"/>
<path d="M62 165.5L78 219.5L112 177.5" stroke="#3ECFB2"/>
<path d="M114 177L128 214.5L148 177L190.5 149" stroke="#B7E0D9"/>
<path d="M176.5 204L191 149.5" stroke="#B7E0D9"/>
<path d="M191 149.5L238 157.5M238 157.5V117.5L276 134L238 157.5Z" stroke="#A7E0D5"/>
<path d="M135.5 117.5L192 148.5L203.5 91.5L135.5 117.5Z" stroke="#9B8F8A"/>
<path d="M203 91.5L238 117V64L203 91.5Z" stroke="#F0EBE8"/>
<path d="M238.5 63.5L249.5 74L279 84.5" stroke="#F0EBE8"/>
<path d="M63 166.5L74 129.5M74 129.5L100.5 123M74 129.5L45.5 123L88 86L100.5 123L99 138L74 129.5ZM74 129.5L88 86" stroke="#F0EBE8"/>
<path d="M100 138L135.5 117M135.5 117L100 122.5L123.5 80L118.5 74.5L87.5 87L135.5 117Z" stroke="#F0EBE8"/>
<path d="M-8.5 130.5C11.6667 122.5 86.2 87.9 87 87.5L49 89.5L-8.5 130.5Z" stroke="#F0EBE8"/>
<path d="M135.5 117L160 65L203 90.5L169.5 93.5L123.5 81" stroke="#F0EBE8"/>
<path d="M176.023 208C174.568 208 173.455 207.652 172.67 206.968C171.886 206.284 171.5 205.299 171.5 204.023C171.5 202.748 171.886 201.716 172.67 201.032C173.455 200.348 174.568 200 176.023 200C177.477 200 178.591 200.348 179.352 201.032C180.114 201.716 180.5 202.725 180.5 204.023C180.5 205.322 180.114 206.272 179.352 206.968C178.591 207.652 177.477 208 176.023 208Z" fill="#FF5C6C"/>
<path d="M238.013 159C237.205 159 236.586 158.826 236.15 158.484C235.715 158.142 235.5 157.649 235.5 157.012C235.5 156.374 235.715 155.858 236.15 155.516C236.586 155.174 237.205 155 238.013 155C238.821 155 239.439 155.174 239.862 155.516C240.285 155.858 240.5 156.362 240.5 157.012C240.5 157.661 240.285 158.136 239.862 158.484C239.439 158.826 238.821 159 238.013 159Z" fill="#F0EBE8"/>
<path d="M135.023 121C133.568 121 132.455 120.652 131.67 119.968C130.886 119.284 130.5 118.299 130.5 117.023C130.5 115.748 130.886 114.716 131.67 114.032C132.455 113.348 133.568 113 135.023 113C136.477 113 137.591 113.348 138.352 114.032C139.114 114.716 139.5 115.725 139.5 117.023C139.5 118.322 139.114 119.272 138.352 119.968C137.591 120.652 136.477 121 135.023 121Z" fill="#FF5C6C"/>
<path d="M191.023 153C189.568 153 188.455 152.652 187.67 151.968C186.886 151.284 186.5 150.299 186.5 149.023C186.5 147.748 186.886 146.716 187.67 146.032C188.455 145.348 189.568 145 191.023 145C192.477 145 193.591 145.348 194.352 146.032C195.114 146.716 195.5 147.725 195.5 149.023C195.5 150.322 195.114 151.272 194.352 151.968C193.591 152.652 192.477 153 191.023 153Z" fill="#3ECFB2"/>
<path d="M238.013 65C237.205 65 236.586 64.8261 236.15 64.4841C235.715 64.142 235.5 63.6493 235.5 63.0116C235.5 62.3739 235.715 61.858 236.15 61.5159C236.586 61.1739 237.205 61 238.013 61C238.821 61 239.439 61.1739 239.862 61.5159C240.285 61.858 240.5 62.3623 240.5 63.0116C240.5 63.6609 240.285 64.1362 239.862 64.4841C239.439 64.8261 238.821 65 238.013 65Z" fill="#FF5C6C"/>
<path d="M250.013 76C249.205 76 248.586 75.8261 248.15 75.4841C247.715 75.142 247.5 74.6493 247.5 74.0116C247.5 73.3739 247.715 72.858 248.15 72.5159C248.586 72.1739 249.205 72 250.013 72C250.821 72 251.439 72.1739 251.862 72.5159C252.285 72.858 252.5 73.3623 252.5 74.0116C252.5 74.6609 252.285 75.1362 251.862 75.4841C251.439 75.8261 250.821 76 250.013 76Z" fill="#9B8F8A"/>
<path d="M238.013 119C237.205 119 236.586 118.826 236.15 118.484C235.715 118.142 235.5 117.649 235.5 117.012C235.5 116.374 235.715 115.858 236.15 115.516C236.586 115.174 237.205 115 238.013 115C238.821 115 239.439 115.174 239.862 115.516C240.285 115.858 240.5 116.362 240.5 117.012C240.5 117.661 240.285 118.136 239.862 118.484C239.439 118.826 238.821 119 238.013 119Z" fill="#9B8F8A"/>
<path d="M202.023 95C200.568 95 199.455 94.6522 198.67 93.9681C197.886 93.2841 197.5 92.2986 197.5 91.0232C197.5 89.7478 197.886 88.7159 198.67 88.0319C199.455 87.3478 200.568 87 202.023 87C203.477 87 204.591 87.3478 205.352 88.0319C206.114 88.7159 206.5 89.7246 206.5 91.0232C206.5 92.3217 206.114 93.2725 205.352 93.9681C204.591 94.6522 203.477 95 202.023 95Z" fill="#3ECFB2"/>
<path d="M87.0227 91C85.5682 91 84.4545 90.6522 83.6705 89.9681C82.8864 89.2841 82.5 88.2986 82.5 87.0232C82.5 85.7478 82.8864 84.7159 83.6705 84.0319C84.4545 83.3478 85.5682 83 87.0227 83C88.4773 83 89.5909 83.3478 90.3523 84.0319C91.1136 84.7159 91.5 85.7246 91.5 87.0232C91.5 88.3217 91.1136 89.2725 90.3523 89.9681C89.5909 90.6522 88.4773 91 87.0227 91Z" fill="#9B8F8A"/>
<path d="M161.013 67C160.205 67 159.586 66.8261 159.15 66.4841C158.715 66.142 158.5 65.6493 158.5 65.0116C158.5 64.3739 158.715 63.858 159.15 63.5159C159.586 63.1739 160.205 63 161.013 63C161.821 63 162.439 63.1739 162.862 63.5159C163.285 63.858 163.5 64.3623 163.5 65.0116C163.5 65.6609 163.285 66.1362 162.862 66.4841C162.439 66.8261 161.821 67 161.013 67Z" fill="#FF5C6C"/>
<path d="M191.013 59C190.205 59 189.586 58.8261 189.15 58.4841C188.715 58.142 188.5 57.6493 188.5 57.0116C188.5 56.3739 188.715 55.858 189.15 55.5159C189.586 55.1739 190.205 55 191.013 55C191.821 55 192.439 55.1739 192.862 55.5159C193.285 55.858 193.5 56.3623 193.5 57.0116C193.5 57.6609 193.285 58.1362 192.862 58.4841C192.439 58.8261 191.821 59 191.013 59Z" fill="#FF5C6C"/>
<path d="M218.013 46C217.205 46 216.586 45.8261 216.15 45.4841C215.715 45.142 215.5 44.6493 215.5 44.0116C215.5 43.3739 215.715 42.858 216.15 42.5159C216.586 42.1739 217.205 42 218.013 42C218.821 42 219.439 42.1739 219.862 42.5159C220.285 42.858 220.5 43.3623 220.5 44.0116C220.5 44.6609 220.285 45.1362 219.862 45.4841C219.439 45.8261 218.821 46 218.013 46Z" fill="#FF5C6C"/>
<path d="M245.013 46C244.205 46 243.586 45.8261 243.15 45.4841C242.715 45.142 242.5 44.6493 242.5 44.0116C242.5 43.3739 242.715 42.858 243.15 42.5159C243.586 42.1739 244.205 42 245.013 42C245.821 42 246.439 42.1739 246.862 42.5159C247.285 42.858 247.5 43.3623 247.5 44.0116C247.5 44.6609 247.285 45.1362 246.862 45.4841C246.439 45.8261 245.821 46 245.013 46Z" fill="white"/>
<path d="M255.013 38C254.205 38 253.586 37.8261 253.15 37.4841C252.715 37.142 252.5 36.6493 252.5 36.0116C252.5 35.3739 252.715 34.858 253.15 34.5159C253.586 34.1739 254.205 34 255.013 34C255.821 34 256.439 34.1739 256.862 34.5159C257.285 34.858 257.5 35.3623 257.5 36.0116C257.5 36.6609 257.285 37.1362 256.862 37.4841C256.439 37.8261 255.821 38 255.013 38Z" fill="white"/>
<path d="M263.013 53C262.205 53 261.586 52.8261 261.15 52.4841C260.715 52.142 260.5 51.6493 260.5 51.0116C260.5 50.3739 260.715 49.858 261.15 49.5159C261.586 49.1739 262.205 49 263.013 49C263.821 49 264.439 49.1739 264.862 49.5159C265.285 49.858 265.5 50.3623 265.5 51.0116C265.5 51.6609 265.285 52.1362 264.862 52.4841C264.439 52.8261 263.821 53 263.013 53Z" fill="white"/>
<path d="M225.013 24C224.205 24 223.586 23.8261 223.15 23.4841C222.715 23.142 222.5 22.6493 222.5 22.0116C222.5 21.3739 222.715 20.858 223.15 20.5159C223.586 20.1739 224.205 20 225.013 20C225.821 20 226.439 20.1739 226.862 20.5159C227.285 20.858 227.5 21.3623 227.5 22.0116C227.5 22.6609 227.285 23.1362 226.862 23.4841C226.439 23.8261 225.821 24 225.013 24Z" fill="white"/>
<path d="M187.013 26C186.205 26 185.586 25.8261 185.15 25.4841C184.715 25.142 184.5 24.6493 184.5 24.0116C184.5 23.3739 184.715 22.858 185.15 22.5159C185.586 22.1739 186.205 22 187.013 22C187.821 22 188.439 22.1739 188.862 22.5159C189.285 22.858 189.5 23.3623 189.5 24.0116C189.5 24.6609 189.285 25.1362 188.862 25.4841C188.439 25.8261 187.821 26 187.013 26Z" fill="#FF5C6C"/>
<path d="M169.013 95C168.205 95 167.586 94.8261 167.15 94.4841C166.715 94.142 166.5 93.6493 166.5 93.0116C166.5 92.3739 166.715 91.858 167.15 91.5159C167.586 91.1739 168.205 91 169.013 91C169.821 91 170.439 91.1739 170.862 91.5159C171.285 91.858 171.5 92.3623 171.5 93.0116C171.5 93.6609 171.285 94.1362 170.862 94.4841C170.439 94.8261 169.821 95 169.013 95Z" fill="#F0EBE8"/>
<path d="M178.013 117C177.205 117 176.586 116.826 176.15 116.484C175.715 116.142 175.5 115.649 175.5 115.012C175.5 114.374 175.715 113.858 176.15 113.516C176.586 113.174 177.205 113 178.013 113C178.821 113 179.439 113.174 179.862 113.516C180.285 113.858 180.5 114.362 180.5 115.012C180.5 115.661 180.285 116.136 179.862 116.484C179.439 116.826 178.821 117 178.013 117Z" fill="#F0EBE8"/>
<path d="M218.013 117C217.205 117 216.586 116.826 216.15 116.484C215.715 116.142 215.5 115.649 215.5 115.012C215.5 114.374 215.715 113.858 216.15 113.516C216.586 113.174 217.205 113 218.013 113C218.821 113 239.439 113.174 219.862 113.516C220.285 113.858 220.5 114.362 220.5 115.012C220.5 115.661 220.285 116.136 219.862 116.484C219.439 116.826 218.821 117 218.013 117Z" fill="#F0EBE8"/>
<path d="M123.013 83C122.205 83 121.586 82.8261 121.15 82.4841C120.715 82.142 120.5 81.6493 120.5 81.0116C120.5 80.3739 120.715 79.858 121.15 79.5159C121.586 79.1739 122.205 79 123.013 79C123.821 79 124.439 79.1739 124.862 79.5159C125.285 79.858 125.5 80.3623 125.5 81.0116C125.5 81.6609 125.285 82.1362 124.862 82.4841C124.439 82.8261 123.821 83 123.013 83Z" fill="white"/>
<path d="M118.013 76C117.205 76 116.586 75.8261 116.15 75.4841C115.715 75.142 115.5 74.6493 115.5 74.0116C115.5 73.3739 115.715 72.858 116.15 72.5159C116.586 72.1739 117.205 72 118.013 72C118.821 72 119.439 72.1739 119.862 72.5159C120.285 72.858 120.5 73.3623 120.5 74.0116C120.5 74.6609 120.285 75.1362 119.862 75.4841C119.439 75.8261 118.821 76 118.013 76Z" fill="white"/>
<path d="M109.013 52C108.205 52 107.586 51.8261 107.15 51.4841C106.715 51.142 106.5 50.6493 106.5 50.0116C106.5 49.3739 106.715 48.858 107.15 48.5159C107.586 48.1739 108.205 48 109.013 48C109.821 48 110.439 48.1739 110.862 48.5159C111.285 48.858 111.5 49.3623 111.5 50.0116C111.5 50.6609 111.285 51.1362 110.862 51.4841C110.439 51.8261 109.821 52 109.013 52Z" fill="#FF5C6C"/>
<path d="M133.013 57C132.205 57 131.586 56.8261 131.15 56.4841C130.715 56.142 130.5 55.6493 130.5 55.0116C130.5 54.3739 130.715 53.858 131.15 53.5159C131.586 53.1739 132.205 53 133.013 53C133.821 53 134.439 53.1739 134.862 53.5159C135.285 53.858 135.5 54.3623 135.5 55.0116C135.5 55.6609 135.285 56.1362 134.862 56.4841C134.439 56.8261 133.821 57 133.013 57Z" fill="white"/>
<path d="M136.013 46C135.205 46 134.586 45.8261 134.15 45.4841C133.715 45.142 133.5 44.6493 133.5 44.0116C133.5 43.3739 133.715 42.858 134.15 42.5159C134.586 42.1739 135.205 42 136.013 42C136.821 42 137.439 42.1739 137.862 42.5159C138.285 42.858 138.5 43.3623 138.5 44.0116C138.5 44.6609 138.285 45.1362 137.862 45.4841C137.439 45.8261 136.821 46 136.013 46Z" fill="white"/>
<path d="M149.013 38C148.205 38 147.586 37.8261 147.15 37.4841C146.715 37.142 146.5 36.6493 146.5 36.0116C146.5 35.3739 146.715 34.858 147.15 34.5159C147.586 34.1739 148.205 34 149.013 34C149.821 34 150.439 34.1739 150.862 34.5159C151.285 34.858 151.5 35.3623 151.5 36.0116C151.5 36.6609 151.285 37.1362 150.862 37.4841C150.439 37.8261 149.821 38 149.013 38Z" fill="white"/>
<path d="M92.0126 46C91.2045 46 90.5859 45.8261 90.1503 45.4841C89.7146 45.142 89.5 44.6493 89.5 44.0116C89.5 43.3739 89.7146 42.858 90.1503 42.5159C90.5859 42.1739 91.2045 42 92.0126 42C92.8207 42 93.4394 42.1739 93.8624 42.5159C94.2854 42.858 94.5 43.3623 94.5 44.0116C94.5 44.6609 94.2854 45.1362 93.8624 45.4841C93.4394 45.8261 92.8207 46 92.0126 46Z" fill="white"/>
<path d="M76.0126 48C75.2045 48 74.5859 47.8261 74.1503 47.4841C73.7146 47.142 73.5 46.6493 73.5 46.0116C73.5 45.3739 73.7146 44.858 74.1503 44.5159C74.5859 44.1739 75.2045 44 76.0126 44C76.8207 44 77.4394 44.1739 77.8624 44.5159C78.2854 44.858 78.5 45.3623 78.5 46.0116C78.5 46.6609 78.2854 47.1362 77.8624 47.4841C77.4394 47.8261 76.8207 48 76.0126 48Z" fill="white"/>
<path d="M69.0126 52C68.2045 52 67.5859 51.8261 67.1503 51.4841C66.7146 51.142 66.5 50.6493 66.5 50.0116C66.5 49.3739 66.7146 48.858 67.1503 48.5159C67.5859 48.1739 68.2045 48 69.0126 48C69.8207 48 70.4394 48.1739 70.8624 48.5159C71.2854 48.858 71.5 49.3623 71.5 50.0116C71.5 50.6609 71.2854 51.1362 70.8624 51.4841C70.4394 51.8261 69.8207 52 69.0126 52Z" fill="white"/>
<path d="M46.0126 46C45.2045 46 44.5859 45.8261 44.1503 45.4841C43.7146 45.142 43.5 44.6493 43.5 44.0116C43.5 43.3739 43.7146 42.858 44.1503 42.5159C44.5859 42.1739 45.2045 42 46.0126 42C46.8207 42 47.4394 42.1739 47.8624 42.5159C48.2854 42.858 48.5 43.3623 48.5 44.0116C48.5 44.6609 48.2854 45.1362 47.8624 45.4841C47.4394 45.8261 46.8207 46 46.0126 46Z" fill="white"/>
<path d="M38.0126 34C37.2045 34 36.5859 33.8261 36.1503 33.4841C35.7146 33.142 35.5 32.6493 35.5 32.0116C35.5 31.3739 35.7146 30.858 36.1503 30.5159C36.5859 30.1739 37.2045 30 38.0126 30C38.8207 30 39.4394 30.1739 39.8624 30.5159C40.2854 30.858 40.5 31.3623 40.5 32.0116C40.5 32.6609 40.2854 33.1362 39.8624 33.4841C39.4394 33.8261 38.8207 34 38.0126 34Z" fill="white"/>
<path d="M58.0126 24C57.2045 24 56.5859 23.8261 56.1503 23.4841C55.7146 23.142 55.5 22.6493 55.5 22.0116C55.5 21.3739 55.7146 20.858 56.1503 20.5159C56.5859 20.1739 57.2045 20 58.0126 20C58.8207 20 59.4394 20.1739 59.8624 20.5159C60.2854 20.858 60.5 21.3623 60.5 22.0116C60.5 22.6609 60.2854 23.1362 59.8624 23.4841C59.4394 23.8261 58.8207 24 58.0126 24Z" fill="white"/>
<path d="M46.0126 55C45.2045 55 44.5859 54.8261 44.1503 54.4841C43.7146 54.142 43.5 53.6493 43.5 53.0116C43.5 52.3739 43.7146 51.858 44.1503 51.5159C44.5859 51.1739 45.2045 51 46.0126 51C46.8207 51 47.4394 51.1739 47.8624 51.5159C48.2854 51.858 48.5 52.3623 48.5 53.0116C48.5 53.6609 48.2854 54.1362 47.8624 54.4841C47.4394 54.8261 46.8207 55 46.0126 55Z" fill="white"/>
<path d="M49.0126 91C48.2045 91 47.5859 90.8261 47.1503 90.4841C46.7146 90.142 46.5 89.6493 46.5 89.0116C46.5 88.3739 46.7146 87.858 47.1503 87.5159C47.5859 87.1739 48.2045 87 49.0126 87C49.8207 87 50.4394 87.1739 50.8624 87.5159C51.2854 87.858 51.5 88.3623 51.5 89.0116C51.5 89.6609 51.2854 90.1362 50.8624 90.4841C50.4394 90.8261 49.8207 91 49.0126 91Z" fill="#9B8F8A"/>
<path d="M46.0126 125C45.2045 125 44.5859 124.826 44.1503 124.484C43.7146 124.142 43.5 123.649 43.5 123.012C43.5 122.374 43.7146 121.858 44.1503 121.516C44.5859 121.174 45.2045 121 46.0126 121C46.8207 121 47.4394 121.174 47.8624 121.516C48.2854 121.858 48.5 122.362 48.5 123.012C48.5 123.661 48.2854 124.136 47.8624 124.484C47.4394 124.826 46.8207 125 46.0126 125Z" fill="#F0EBE8"/>
<path d="M74.0126 131C73.2045 131 72.5859 130.826 72.1503 130.484C71.7146 130.142 71.5 129.649 71.5 129.012C71.5 128.374 71.7146 127.858 72.1503 127.516C72.5859 127.174 73.2045 127 74.0126 127C74.8207 127 75.4394 127.174 75.8624 127.516C76.2854 127.858 76.5 128.362 76.5 129.012C76.5 129.661 76.2854 130.136 75.8624 130.484C75.4394 130.826 74.8207 131 74.0126 131Z" fill="#F0EBE8"/>
<path d="M99.0126 140C98.2045 140 97.5859 139.826 97.1503 139.484C96.7146 139.142 96.5 138.649 96.5 138.012C96.5 137.374 96.7146 136.858 97.1503 136.516C97.5859 136.174 98.2045 136 99.0126 136C99.8207 136 100.439 136.174 100.862 136.516C101.285 136.858 101.5 137.362 101.5 138.012C101.5 138.661 101.285 139.136 100.862 139.484C100.439 139.826 99.8207 140 99.0126 140Z" fill="#F0EBE8"/>
<path d="M100.013 124C99.2045 124 98.5859 123.826 98.1503 123.484C97.7146 123.142 97.5 122.649 97.5 122.012C97.5 121.374 97.7146 120.858 98.1503 120.516C98.5859 120.174 99.2045 120 100.013 120C100.821 120 101.439 120.174 101.862 120.516C102.285 120.858 102.5 121.362 102.5 122.012C102.5 122.661 102.285 123.136 101.862 123.484C101.439 123.826 100.821 124 100.013 124Z" fill="#F0EBE8"/>
<path d="M148.013 180C147.205 180 146.586 179.826 146.15 179.484C145.715 179.142 145.5 178.649 145.5 178.012C145.5 177.374 145.715 176.858 146.15 176.516C146.586 176.174 147.205 176 148.013 176C148.821 176 149.439 176.174 149.862 176.516C150.285 176.858 150.5 177.362 150.5 178.012C150.5 178.661 150.285 179.136 149.862 179.484C149.439 179.826 148.821 180 148.013 180Z" fill="#9B8F8A"/>
<path d="M128.013 216C127.205 216 126.586 215.826 126.15 215.484C125.715 215.142 125.5 214.649 125.5 214.012C125.5 213.374 125.715 212.858 126.15 212.516C126.586 212.174 127.205 212 128.013 212C128.821 212 129.439 212.174 129.862 212.516C130.285 212.858 130.5 213.362 130.5 214.012C130.5 214.661 130.285 215.136 129.862 215.484C129.439 215.826 128.821 216 128.013 216Z" fill="white"/>
<path d="M38.0126 57C37.2045 57 36.5859 56.8261 36.1503 56.4841C35.7146 56.142 35.5 55.6493 35.5 55.0116C35.5 54.3739 35.7146 53.858 36.1503 53.5159C36.5859 53.1739 37.2045 53 38.0126 53C38.8207 53 39.4394 53.1739 39.8624 53.5159C40.2854 53.858 40.5 54.3623 40.5 55.0116C40.5 55.6609 40.2854 56.1362 39.8624 56.4841C39.4394 56.8261 38.8207 57 38.0126 57Z" fill="white"/>
<path d="M96.0126 24C95.2045 24 94.5859 23.8261 94.1503 23.4841C93.7146 23.142 93.5 22.6493 93.5 22.0116C93.5 21.3739 93.7146 20.858 94.1503 20.5159C94.5859 20.1739 95.2045 20 96.0126 20C96.8207 20 97.4394 20.1739 97.8624 20.5159C98.2854 20.858 98.5 21.3623 98.5 22.0116C98.5 22.6609 98.2854 23.1362 97.8624 23.4841C97.4394 23.8261 96.8207 24 96.0126 24Z" fill="white"/>
<path d="M62.0227 169C60.5682 169 59.4545 168.652 58.6705 167.968C57.8864 167.284 57.5 166.299 57.5 165.023C57.5 163.748 57.8864 162.716 58.6705 162.032C59.4545 161.348 60.5682 161 62.0227 161C63.4773 161 64.5909 161.348 65.3523 162.032C66.1136 162.716 66.5 163.725 66.5 165.023C66.5 166.322 66.1136 167.272 65.3523 167.968C64.5909 168.652 63.4773 169 62.0227 169Z" fill="#FF5C6C"/>
<path d="M113.023 181C111.568 181 110.455 180.652 109.67 179.968C108.886 179.284 108.5 178.299 108.5 177.023C108.5 175.748 108.886 174.716 109.67 174.032C110.455 173.348 111.568 173 113.023 173C114.477 173 115.591 173.348 116.352 174.032C117.114 174.716 117.5 175.725 117.5 177.023C117.5 178.322 117.114 179.272 116.352 179.968C115.591 180.652 114.477 181 113.023 181Z" fill="#3ECFB2"/>
<path d="M78.0227 222C76.5682 222 75.4545 221.652 74.6705 220.968C73.8864 220.284 73.5 219.299 73.5 218.023C73.5 216.748 73.8864 215.716 74.6705 215.032C75.4545 214.348 76.5682 214 78.0227 214C79.4773 214 80.5909 214.348 81.3523 215.032C82.1136 215.716 82.5 216.725 82.5 218.023C82.5 219.322 82.1136 220.272 81.3523 220.968C80.5909 221.652 79.4773 222 78.0227 222Z" fill="#9B8F8A"/>
</g>
<defs>
<clipPath id="clip0_153_2105">
<rect width="271" height="241" fill="white"/>
</clipPath>
</defs>
</svg>
