<svg width="453" height="528" viewBox="0 0 453 528" fill="none" xmlns="http://www.w3.org/2000/svg">
<path d="M226.5 0C351.589 0 453 96.6851 453 215.944C450.125 281.685 417.027 342.871 362.505 383.204L309.42 422.5C287.84 438.481 271.602 460.129 262.745 484.796L256.49 502.148C252.1 514.371 240.038 522.574 226.5 522.574C212.942 522.574 200.9 514.371 196.51 502.148L190.255 484.796C181.398 460.129 165.16 438.481 143.561 422.5L90.4756 383.204C35.9726 342.871 2.87471 281.685 0 215.944C6.0553e-05 96.6851 101.411 0 226.5 0ZM227.923 199.931C219.419 199.704 211.182 202.069 206.338 206.795C201.575 211.442 199.024 215.608 196.68 219.914C194.337 224.218 192.215 228.626 188.287 233.853C184.412 239.009 178.522 242.087 172.368 245.218C166.253 248.329 159.883 251.488 155.307 256.827C150.705 262.196 149.027 269.265 149.974 275.668C150.92 282.071 154.502 287.862 160.478 290.607C169.868 294.922 178.491 294.276 187.155 292.581C195.849 290.88 204.498 288.153 214.187 288.153C222.892 288.153 227.2 289.146 231 290.679C232.922 291.454 234.705 292.362 236.898 293.38C239.082 294.393 241.631 295.494 245.028 296.627C261.57 302.141 276.874 296.117 283.854 293.624C287.477 292.33 291.728 288.915 294.486 284.288C297.254 279.645 298.546 273.735 296.153 267.475C294.965 264.365 293.436 262.182 291.633 260.516C289.835 258.854 287.785 257.724 285.591 256.696C281.188 254.634 276.201 252.967 271.022 248.282C268.463 245.967 266.339 242.723 264.501 239.04C262.664 235.36 261.126 231.271 259.721 227.282C258.32 223.306 257.047 219.411 255.753 216.174C254.465 212.953 253.119 210.278 251.528 208.788C245.334 202.986 236.437 200.158 227.923 199.931ZM320.363 173.186C319.681 172.927 318.863 172.923 317.968 173.091C317.068 173.259 316.048 173.609 314.937 174.105C312.714 175.099 310.062 176.71 307.161 178.752C301.356 182.838 294.49 188.697 287.957 194.951C281.423 201.206 275.208 207.872 270.706 213.575C268.456 216.426 266.625 219.047 265.396 221.266C264.782 222.375 264.313 223.395 264.018 224.3C263.725 225.198 263.591 226.022 263.691 226.724C265.728 240.983 278.541 252.941 295.58 256.642C304.197 258.513 313.965 255.836 322.25 249.883C330.542 243.925 337.393 234.658 340.173 223.271C345.71 200.59 336.678 179.363 320.363 173.186ZM158.46 158.487C153.544 155.276 147.992 157.192 144.994 158.444C144.244 158.758 143.347 159.583 142.383 160.714C141.401 161.867 140.293 163.406 139.129 165.239C136.799 168.907 134.221 173.783 131.94 179.171C129.66 184.559 127.671 190.471 126.528 196.209C125.386 201.941 125.081 207.534 126.2 212.268C128.419 221.655 133.858 229.5 140.062 234.993C146.251 240.473 153.269 243.671 158.688 243.653C167.713 243.625 175.585 239.166 181.376 233.103C187.162 227.044 190.919 219.335 191.684 212.71C192.456 206.018 189.783 201.234 186.187 197.223C184.395 195.225 182.364 193.407 180.416 191.643C178.459 189.87 176.588 188.154 175.07 186.333C166.351 175.87 163.892 170.054 162.791 166.354C162.513 165.421 162.321 164.622 162.134 163.891C161.948 163.167 161.765 162.504 161.508 161.888C160.978 160.62 160.154 159.594 158.46 158.487ZM277.214 99.1533C271.53 98.8451 265.533 101.874 259.946 106.123C254.343 110.384 249.067 115.938 244.81 120.824C240.476 125.797 236.178 136.045 233.97 147.374C231.761 158.71 231.618 171.262 235.727 180.85C238.745 187.893 242.127 192.869 246.703 196.323C251.279 199.777 256.999 201.671 264.623 202.648C269.938 203.33 275.105 201.071 279.825 197.179C284.548 193.285 288.879 187.714 292.552 181.647C296.227 175.577 299.257 168.987 301.369 163.033C303.477 157.092 304.686 151.739 304.687 148.153C304.687 138.3 301.157 126.27 296.003 116.617C293.424 111.788 290.427 107.529 287.238 104.427C284.058 101.332 280.637 99.339 277.214 99.1533ZM230.327 93.1729C207.149 86.3707 189.887 93.169 179.479 106.597C169.099 119.987 165.59 139.896 169.697 159.257C171.262 166.631 175.761 173.483 181.602 178.424C187.44 183.363 194.663 186.428 201.706 186.152C208.782 185.876 214.361 181.201 218.527 175.848C222.701 170.485 225.533 164.344 227.096 160.959L227.141 160.862L227.289 160.521C228.046 158.685 228.99 154.985 229.904 150.208C230.884 145.091 231.839 138.685 232.497 131.889C233.81 118.324 233.948 103.103 230.66 93.4912L230.576 93.2461L230.327 93.1729Z" fill="#FF5C6C"/>
</svg>
